<?xml version="1.0" encoding="utf-8"?>
<COLLADA xmlns="http://www.collada.org/2005/11/COLLADASchema" version="1.4.1" xmlns:xsi="http://www.w3.org/2001/XMLSchema-instance">
  <asset>
    <contributor>
      <author>Blender User</author>
      <authoring_tool>Blender 4.2.18 LTS commit date:2026-02-16, commit time:13:37, hash:d71e3422e438</authoring_tool>
    </contributor>
    <created>2026-04-12T20:18:24</created>
    <modified>2026-04-12T20:18:24</modified>
    <unit name="meter" meter="1"/>
    <up_axis>Z_UP</up_axis>
  </asset>
  <library_effects>
    <effect id="Material_010-effect">
      <profile_COMMON>
        <technique sid="common">
          <lambert>
            <emission>
              <color sid="emission">0 0 0 1</color>
            </emission>
            <diffuse>
              <color sid="diffuse">0.282661 0.282661 0.282661 1</color>
            </diffuse>
            <index_of_refraction>
              <float sid="ior">1.5</float>
            </index_of_refraction>
          </lambert>
        </technique>
      </profile_COMMON>
    </effect>
    <effect id="Material_002-effect">
      <profile_COMMON>
        <technique sid="common">
          <lambert>
            <emission>
              <color sid="emission">0 0 0 1</color>
            </emission>
            <diffuse>
              <color sid="diffuse">1 0.028 0.028 1</color>
            </diffuse>
            <index_of_refraction>
              <float sid="ior">1.5</float>
            </index_of_refraction>
          </lambert>
        </technique>
      </profile_COMMON>
    </effect>
    <effect id="Material_003-effect">
      <profile_COMMON>
        <technique sid="common">
          <lambert>
            <emission>
              <color sid="emission">0 0 0 1</color>
            </emission>
            <diffuse>
              <color sid="diffuse">1 0.028 0.028 1</color>
            </diffuse>
            <index_of_refraction>
              <float sid="ior">1.5</float>
            </index_of_refraction>
          </lambert>
        </technique>
      </profile_COMMON>
    </effect>
    <effect id="Material-effect">
      <profile_COMMON>
        <technique sid="common">
          <lambert>
            <emission>
              <color sid="emission">0 0 0 1</color>
            </emission>
            <diffuse>
              <color sid="diffuse">0.282661 0.282661 0.282661 1</color>
            </diffuse>
            <index_of_refraction>
              <float sid="ior">1.5</float>
            </index_of_refraction>
          </lambert>
        </technique>
      </profile_COMMON>
    </effect>
  </library_effects>
  <library_images/>
  <library_materials>
    <material id="Material_010-material" name="Material.010">
      <instance_effect url="#Material_010-effect"/>
    </material>
    <material id="Material_002-material" name="Material.002">
      <instance_effect url="#Material_002-effect"/>
    </material>
    <material id="Material_003-material" name="Material.003">
      <instance_effect url="#Material_003-effect"/>
    </material>
    <material id="Material-material" name="Material">
      <instance_effect url="#Material-effect"/>
    </material>
  </library_materials>
  <library_geometries>
    <geometry id="Cube_011-mesh" name="Cube.011">
      <mesh>
        <source id="Cube_011-mesh-positions">
          <float_array id="Cube_011-mesh-positions-array" count="348">6.857446 -12.08166 -7.453192 6.857446 -10.08166 -7.453192 8.857445 -12.08166 -7.453192 8.857445 -12.08166 -5.453192 8.857445 -10.08166 -5.453192 6.478481 -12.08925 -37.65466 14.96376 -12.08925 -29.16938 6.478481 -10.56544 -37.65466 7.892694 -12.08925 -39.06887 16.37798 -12.08925 -30.5836 7.892694 -10.56544 -39.06887 16.37798 -10.56544 -30.5836 8.224823 -12.08925 -12.46716 10.07919 -12.08925 -11.71794 8.224823 -10.56544 -12.46716 10.07919 -10.56544 -11.71794 16.8221 -12.08925 -28.40725 14.96774 -10.56544 -29.15646 16.8221 -10.56544 -28.40725 6.859474 -12.08924 -5.451451 -8.140526 -10.56544 -5.451448 6.859474 -10.56544 -5.451451 -8.140526 -12.08924 -7.451448 -8.140526 -10.56544 -7.451448 -27.42624 -12.08925 10.40534 -26.01203 -12.08925 11.81956 -27.42624 -10.56544 10.40534 -26.01203 -10.56544 11.81956 -10.45568 -12.08925 -6.565218 -9.04147 -12.08925 -5.151006 -10.45568 -10.56544 -6.565218 -35.92393 -12.08925 4.764084 -28.85287 -12.08925 11.83515 -35.92393 -10.56544 4.764084 -34.50971 -12.08925 3.34987 -34.50971 -10.56544 3.34987 -28.01722 -12.08925 12.51845 -27.47311 -10.56544 12.61117 -28.43138 -10.56544 12.27215 -17.52502 -12.08925 -13.63484 -17.52502 -10.56544 -13.63484 -16.11081 -12.08925 -15.04905 -9.039742 -12.08925 -7.977985 -16.11081 -10.56544 -15.04905 -9.039742 -10.56544 -7.977985 8.857848 -10.56544 -7.452857 6.857846 -12.08925 -9.452857 8.857846 -12.08925 -9.452857 6.857846 -10.56544 -9.452857 8.857846 -10.56544 -9.452857 -28.12109 9.143247 16.62608 -18.2216 9.143247 26.52558 -28.12109 -9.904374 16.62608 -18.2216 -9.904374 26.52558 14.3053 9.143247 -25.80034 14.3053 -9.904374 -25.80034 10.06267 9.143247 -1.758701 15.71953 9.143247 3.898151 10.06267 -9.904374 -1.758701 15.71953 -9.904374 3.898151 18.54795 9.143247 -10.24399 24.20481 9.143247 -4.587134 18.54795 -9.904374 -10.24399 24.20481 -9.904374 -4.587134 24.2048 -9.904374 -15.90085 24.2048 9.143247 -15.90085 6.857448 11.14127 -7.453192 6.857448 11.14127 -5.453192 6.857448 9.141275 -7.453192 6.857448 9.141275 -5.453192 8.857449 11.14127 -7.453192 8.857449 11.14127 -5.453192 8.857449 9.141275 -7.453192 8.857449 9.141275 -5.453192 6.478483 11.14886 -37.65466 14.96377 11.14886 -29.16938 6.478483 9.625051 -37.65466 14.96377 9.625051 -29.16938 7.892696 11.14886 -39.06888 16.37798 11.14886 -30.5836 7.892696 9.625051 -39.06888 16.37798 9.625051 -30.5836 8.224825 11.14886 -12.46716 10.07919 11.14886 -11.71794 8.224825 9.625051 -12.46716 10.07919 9.625051 -11.71794 16.82211 11.14886 -28.40725 16.82211 9.625051 -28.40725 -8.140526 11.14886 -5.451449 -8.140526 9.625051 -5.451449 -8.140526 11.14886 -7.451449 -8.140526 9.625051 -7.451449 -27.42624 11.14886 10.40535 -26.01203 11.14886 11.81956 -10.45568 11.14886 -6.565219 -10.45568 9.625053 -6.565219 -35.92393 11.14886 4.764084 -28.85287 11.14886 11.83515 -35.92393 9.625053 4.764084 -28.85287 9.625053 11.83515 -34.50971 11.14886 3.349871 -34.50971 9.625053 3.349871 -27.47311 11.14886 12.61118 -26.8033 9.625053 12.42124 -28.01722 9.625053 12.51845 -27.43588 9.625053 10.41751 -17.52502 11.14886 -13.63484 -17.52502 9.625053 -13.63484 -16.11081 11.14886 -15.04905 -9.039742 11.14886 -7.977985 -16.11081 9.625053 -15.04905 -9.039742 9.625053 -7.977985 6.857848 11.14886 -9.452857 8.857848 11.14886 -9.452857 6.857848 9.625051 -9.452857 8.857848 9.625051 -9.452857</float_array>
          <technique_common>
            <accessor source="#Cube_011-mesh-positions-array" count="116" stride="3">
              <param name="X" type="float"/>
              <param name="Y" type="float"/>
              <param name="Z" type="float"/>
            </accessor>
          </technique_common>
        </source>
        <source id="Cube_011-mesh-normals">
          <float_array id="Cube_011-mesh-normals-array" count="726">0.9999995 0 -0.001013338 0.2288605 0.9461743 -0.2288604 1 -2.65429e-4 0 0 -0.9999929 -0.003788948 0 0 -1 8.71111e-4 0 0.9999997 -0.7074791 0 0.7067344 0 1 0 0.7071065 0 -0.7071071 0 -1 0 -0.7071053 0 -0.7071083 0.9798064 0 -0.1999486 0.8801979 0 0.4746069 0 1 0 0 -1 0 -0.9273611 0 -0.3741677 0.9271839 0 0.3746064 0 -1 0 1.87132e-7 0.1934414 0.9811118 -0.03223937 0.9994802 0 -1.16237e-4 0 -1 0 -1 -3.93988e-7 6.68337e-7 -1 6.69839e-7 0.9999995 0 -0.001013338 0 1 0 0.5052981 0 -0.8629449 0 -1 0 -0.7071069 0 -0.7071067 0.6811556 -0.2684296 0.6811553 -0.7078379 0 0.7063749 0 1 0 0.7057049 0 -0.7085059 0 -1 0 -0.7071075 0 -0.7071061 3.00348e-7 -1 -3.67315e-7 3.5268e-7 -1 -3.52679e-7 -0.3328958 0.06161057 0.9409487 0.4763748 0 0.8792424 -0.7071208 0 0.7070928 0 1 0 0.7071067 0 -0.7071068 0 -1 0 -0.7071077 0 -0.7071058 0 1 0 -0.7071067 0 0.7071069 -0.3574975 0 -0.9339141 0 1 0 1.67098e-4 0 -1 0 0.9719603 -0.235145 0 1 0 0 -0.9999929 0.003793358 -1 0 -2.00067e-4 1 0 2.00305e-4 0 -1 0 -0.9107258 0 -0.4130116 -0.7071068 0 0.7071069 0 -1 0 0.7071067 0 -0.7071068 0 1 0 -0.707107 0 -0.7071065 0.707107 0 0.7071065 -0.7071066 0 0.7071069 0 -1 0 0.7071065 0 -0.707107 0 1 0 -0.707107 0 -0.7071065 0.7071069 0 0.7071067 1 0 0 0 -1 0 1 0 0 0 1 0 0 0 -1 0 0 1 -0.7071067 0 0.7071068 0 -1 0 0.7071066 0 -0.707107 0 1 0 -0.7071073 0 -0.7071063 0.9798063 0 -0.1999492 0.8801979 0 0.4746069 0 -1 0 0 -1 0 0 1 0 -0.9273611 0 -0.3741677 0.9271839 0 0.3746064 1.16237e-4 0 1 -0.03223931 -0.9994802 0 -1.16205e-4 0 -1 5.0577e-4 0.9999999 0 0 1 0 1 0 0 0 -1 0 0.5052977 0 -0.8629451 0 1 0 -0.7071596 0 -0.7070539 0.6897687 -0.07378041 0.7202609 -0.707107 0 0.7071066 0 -1 0 0.7067605 -0.01011651 -0.7073805 0 1 0 -0.7071063 0 -0.7071073 -0.4902173 0 0.8716003 0.4740208 0.09930855 0.8748955 0 -1 0 0 -1 0 -0.7071207 0 0.7070928 0 -1 0 0.7071068 0 -0.7071068 0 1 0 -0.7071073 0 -0.7071063 -2.12112e-6 -1 0 0.4335201 0 -0.9011439 -0.3574976 0 -0.933914 0 0 -1 0 -0.9719603 -0.2351449 0 -1 0 0 0.9999929 0.003793358 -1 0 -2.00067e-4 1 0 1.99351e-4 0 1 0 -0.9107258 0 -0.4130114 0.9999995 0 -0.001013338 -0.2288975 0.9461565 0.2288973 1 0 2.01259e-4 0.0037961 -0.9999929 0 2.20399e-4 2.20399e-4 -1 8.71111e-4 0 0.9999996 -0.7071007 -0.004150986 0.7071007 0 1 0 0.7071065 0 -0.7071071 0 -1 0 -0.7071053 0 -0.7071083 0.9798064 0 -0.1999486 0.8801979 0 0.4746069 0 1 0 0 1 0 0 -1 0 -0.9271694 0.005593121 -0.3746006 0.9271839 0 0.3746064 0.01889145 0 0.9998216 0 0.9720159 0.234915 -1.16237e-4 0 -1 5.05262e-4 -0.9999927 -0.003789424 0.9999995 0 -0.001013338 0 1 0 0.5052981 0 -0.8629449 0 -1 0 -0.7071069 0 -0.7071067 0.6949228 0 0.7190845 -0.7070888 -0.007198035 0.7070882 -3.32512e-7 1 3.31825e-7 0.7057049 0 -0.7085059 4.00732e-7 -1 -2.67154e-7 -0.7071075 0 -0.7071061 -0.6323126 -0.04686772 0.7732943 0.3241959 -0.1723631 0.9301548 -9.87774e-7 1 0 0 1 0 -0.7071208 0 0.7070928 0 1 0 0.7071067 0 -0.7071068 0 -1 0 -0.7071077 0 -0.7071058 0 1 0 -0.3976833 0.3981153 0.8266512 2.97894e-7 -1 -2.97894e-7 -0.3574975 0 -0.9339141 0 2.20457e-4 -1 0.2350631 0.9719801 -2.24174e-7 0 1 0 0 -0.9999929 0.003793358 -1 0 -2.00067e-4 1 -2.65429e-4 -9.53675e-7 0 -1 0 -0.9107258 0 -0.4130116 -0.7071068 0 0.7071069 0 -1 0 0.7071067 0 -0.7071068 0 1 0 -0.707107 0 -0.7071065 0.707107 0 0.7071065 -0.7071066 0 0.7071069 0 -1 0 0.7071065 0 -0.707107 0 1 0 -0.707107 0 -0.7071065 0.7071069 0 0.7071067 1 0 0 0 -1 0 1 0 0 0 1 0 0 0 -1 0 0 1 -0.7071067 0 0.7071068 0 -1 0 0.7071066 0 -0.707107 0 1 0 -0.7071073 0 -0.7071063 0.9798063 0 -0.1999492 0.8801979 0 0.4746069 0 -1 0 0 1 0 -0.9273611 0 -0.3741677 0.9271839 0 0.3746064 0 1 0 1.16237e-4 0 1 -0.03223931 -0.9994802 0 -1.16205e-4 0 -1 5.0577e-4 0.9999999 0 0 1 0 1 0 0 -5.56279e-7 -1 -5.56196e-7 0.5052977 0 -0.8629451 0 1 0 -0.7071065 -0.001173615 -0.7071061 0.6949227 0 0.7190845 -0.707107 0 0.7071066 0 -1 0 0.705705 0 -0.7085058 0 1 0 -0.7071063 0 -0.7071073 0 1 0 0 1 0 -0.6231128 0.1761264 0.7620432 0.07950991 -0.08880847 0.9928702 -0.7071207 0 0.7070928 0 -1 0 0.7071068 0 -0.7071068 0 1 0 -0.7071073 0 -0.7071063 -5.55847e-7 -1 -5.57096e-7 0.4335201 0 -0.9011439 -0.3574976 0 -0.9339141 -8.23853e-7 -1 0 0 0 -1 0 -0.9719603 -0.235145 0 -1 0 0 0.9999929 0.003793358 -1 0 -2.00067e-4 1 0 1.99351e-4 0 1 0 -0.9107258 0 -0.4130114</float_array>
          <technique_common>
            <accessor source="#Cube_011-mesh-normals-array" count="242" stride="3">
              <param name="X" type="float"/>
              <param name="Y" type="float"/>
              <param name="Z" type="float"/>
            </accessor>
          </technique_common>
        </source>
        <source id="Cube_011-mesh-map-0">
          <float_array id="Cube_011-mesh-map-0-array" count="1452">0.375 0 0.375 0.25 0.625 0.25 0.375 0.25 0.625 0.5 0.375 0.5 0.375 0.5 0.625 0.75 0.375 0.75 0.375 0.75 0.625 1 0.375 1 0.125 0.5 0.375 0.75 0.125 0.75 0.625 0.5 0.875 0.75 0.625 0.75 0.375 0 0.625 0.25 0.375 0.25 0.375 0.25 0.625 0.5 0.375 0.5 0.375 0.5 0.625 0.75 0.375 0.75 0.375 0.75 0.625 1 0.375 1 0.125 0.5 0.375 0.75 0.125 0.75 0.625 0.5 0.625 0.75 0.625 0.5 0.625 0.5 0.875 0.75 0.875 0.5 0.375 0.25 0.625 0.5 0.375 0.5 0.375 0.75 0.625 1 0.375 1 0.125 0.5 0.375 0.75 0.125 0.75 0.625 0.5 0.875 0.75 0.625 0.75 0.625 0.75 0.625 1 0.625 0.75 0.375 0 0.625 0.25 0.375 0.25 0.375 0.25 0.625 0.5 0.375 0.5 0.375 0.5 0.625 0.75 0.375 0.75 0.375 0.75 0.625 1 0.375 1 0.375 0.75 0.625 1 0.625 0.75 0.625 0.5 0.875 0.75 0.625 0.75 0.375 0.25 0.625 0.5 0.375 0.5 0.375 0.5 0.625 0.75 0.625 0.5 0.375 0.75 0.625 1 0.375 1 0.125 0.5 0.375 0.75 0.125 0.75 0.625 0.5 0.875 0.75 0.625 0.75 0.375 0 0.625 0.25 0.375 0.25 0.375 0.25 0.625 0.5 0.375 0.5 0.375 0.5 0.625 0.75 0.375 0.75 0.375 0.75 0.625 1 0.375 1 0.125 0.5 0.375 0.75 0.125 0.75 0.625 1 0.5 0.875 0.625 1 0.625 1 0.4166667 0.9583333 0.625 1 0.75 0.375 0.7916667 0.5 0.7916667 0.4166666 0.7916667 0.4166666 0.8333333 0.625 0.8333333 0.4583333 0.375 0 0.625 0.25 0.375 0.25 0.375 0.25 0.625 0.5 0.375 0.5 0.375 0.5 0.625 0.75 0.375 0.75 0.375 0.75 0.625 1 0.375 1 0.125 0.5 0.375 0.75 0.125 0.75 0.375 0.25 0.625 0.5 0.625 0.25 0.375 0 0.625 0.25 0.625 0 0.375 0.75 0.375 0.5 0.375 0.75 0.375 0.5 0.375 0.25 0.375 0.5 0.375 0 0.375 0.25 0.625 0.25 0.375 0.25 0.625 0.5 0.375 0.5 0.375 0.5 0.625 0.25 0.375 0.25 0.375 0.75 0.625 1 0.375 1 0.125 0.5 0.375 0.75 0.125 0.75 0.625 0.5 0.875 0.75 0.625 0.75 0.625 0.75 0.375 1 0.625 1 0.375 0.75 0.125 0.5 0.125 0.75 0.375 0 0.625 0.25 0.625 0 0.375 0.25 0.625 0.5 0.625 0.25 0.375 0.5 0.625 0.75 0.625 0.5 0.375 0.75 0.625 1 0.625 0.75 0.125 0.5 0.375 0.75 0.375 0.5 0.625 0.5 0.875 0.75 0.875 0.5 0.375 0 0.625 0.25 0.625 0 0.375 0.25 0.625 0.5 0.625 0.25 0.375 0.5 0.625 0.75 0.625 0.5 0.375 0.75 0.625 1 0.625 0.75 0.125 0.5 0.375 0.75 0.375 0.5 0.625 0.5 0.875 0.75 0.875 0.5 0.375 0 0.625 0 0.625 0.25 0.375 0.25 0.625 0.5 0.625 0.25 0.375 0.5 0.625 0.75 0.625 0.5 0.375 0.75 0.625 1 0.625 0.75 0.125 0.5 0.375 0.75 0.375 0.5 0.625 0.5 0.875 0.75 0.875 0.5 0.375 0 0.625 0.25 0.625 0 0.375 0.25 0.625 0.5 0.625 0.25 0.375 0.5 0.625 0.75 0.625 0.5 0.375 0.75 0.625 1 0.625 0.75 0.125 0.5 0.375 0.75 0.375 0.5 0.625 0.5 0.625 0.75 0.625 0.75 0.625 0.5 0.875 0.75 0.625 0.75 0.375 0.25 0.625 0.5 0.625 0.25 0.375 0.5 0.625 0.5 0.625 0.5 0.375 0.75 0.625 1 0.625 0.75 0.125 0.5 0.375 0.75 0.375 0.5 0.625 0.5 0.875 0.75 0.875 0.5 0.375 0 0.625 0.25 0.625 0 0.375 0.25 0.625 0.5 0.625 0.25 0.375 0.5 0.625 0.75 0.625 0.5 0.375 0.75 0.625 1 0.625 0.75 0.375 0.75 0.625 1 0.375 1 0.625 0.5 0.875 0.75 0.875 0.5 0.375 0.25 0.625 0.5 0.625 0.25 0.375 0.5 0.625 0.75 0.375 0.75 0.375 0.75 0.625 1 0.625 0.75 0.125 0.5 0.375 0.75 0.375 0.5 0.625 0.5 0.875 0.75 0.875 0.5 0.375 0 0.625 0.25 0.625 0 0.375 0.25 0.625 0.5 0.625 0.25 0.375 0.5 0.625 0.75 0.625 0.5 0.375 0.75 0.625 1 0.625 0.75 0.125 0.5 0.375 0.75 0.375 0.5 0.7083333 0.3333333 0.75 0.375 0.7083333 0.25 0.8333333 0.4583333 0.875 0.75 0.8333333 0.625 0.5416667 0.4166666 0.625 0.25 0.625 0.25 0.4583333 0.3333333 0.625 0.25 0.625 0.25 0.375 0 0.625 0.25 0.625 0 0.375 0.25 0.625 0.5 0.625 0.25 0.375 0.5 0.625 0.75 0.625 0.5 0.375 0.75 0.625 1 0.625 0.75 0.125 0.5 0.375 0.75 0.375 0.5 0.375 0.25 0.625 0.5 0.375 0.5 0.375 0 0.375 0.25 0.625 0.25 0.375 0.75 0.375 0.5 0.375 0.5 0.375 0 0.625 0 0.625 0.25 0.375 0.25 0.625 0.5 0.625 0.25 0.375 0.5 0.625 0.25 0.625 0.5 0.375 0.75 0.625 1 0.625 0.75 0.125 0.5 0.375 0.75 0.375 0.5 0.625 0.5 0.875 0.75 0.875 0.5 0.625 0.75 0.375 1 0.375 0.75 0.375 0.75 0.125 0.5 0.375 0.5 0.375 0 0.625 0.25 0.625 0 0.375 0.25 0.625 0.25 0.625 0.5 0.375 0.5 0.625 0.5 0.625 0.75 0.375 0.75 0.625 0.75 0.625 1 0.125 0.5 0.375 0.5 0.375 0.75 0.625 0.5 0.875 0.5 0.875 0.75 0.375 0 0.625 0 0.625 0.25 0.375 0.25 0.625 0.25 0.625 0.5 0.375 0.5 0.625 0.5 0.625 0.75 0.375 0.75 0.625 0.75 0.625 1 0.125 0.5 0.375 0.5 0.375 0.75 0.625 0.5 0.625 0.75 0.625 0.75 0.625 0.5 0.625 0.75 0.875 0.75 0.375 0.25 0.625 0.25 0.625 0.5 0.375 0.5 0.625 0.5 0.625 0.5 0.375 0.75 0.625 0.75 0.625 1 0.125 0.5 0.375 0.5 0.375 0.75 0.625 0.5 0.875 0.5 0.875 0.75 0.375 0 0.625 0 0.625 0.25 0.375 0.25 0.625 0.25 0.625 0.5 0.375 0.5 0.625 0.5 0.625 0.75 0.375 0.75 0.625 0.75 0.625 1 0.625 0.5 0.875 0.5 0.875 0.75 0.375 0.25 0.625 0.25 0.625 0.5 0.375 0.5 0.375 0.75 0.625 0.75 0.375 0.75 0.625 0.75 0.625 1 0.125 0.5 0.375 0.5 0.375 0.75 0.625 0.5 0.875 0.5 0.875 0.75 0.375 0 0.625 0 0.625 0.25 0.375 0.25 0.625 0.25 0.625 0.5 0.375 0.5 0.625 0.5 0.625 0.75 0.375 0.75 0.625 0.75 0.625 1 0.125 0.5 0.375 0.5 0.375 0.75 0.7083333 0.3333333 0.7083333 0.25 0.75 0.375 0.7916667 0.4166666 0.7916667 0.5 0.8333333 0.625 0.5 0.375 0.625 0.25 0.625 0.25 0.4583333 0.3333333 0.625 0.25 0.625 0.25 0.375 0 0.625 0 0.625 0.25 0.375 0.25 0.625 0.25 0.625 0.5 0.375 0.5 0.625 0.5 0.625 0.75 0.375 0.75 0.625 0.75 0.625 1 0.125 0.5 0.375 0.5 0.375 0.75 0.375 0.25 0.375 0.5 0.625 0.5 0.375 0 0.375 0.25 0.625 0.25 0.625 0.75 0.375 0.75 0.375 0.75 0.375 0.75 0.375 0.5 0.375 0.5 0.375 0 0.625 0.25 0.625 0 0.375 0.25 0.625 0.25 0.625 0.5 0.375 0.5 0.625 0.5 0.625 0.25 0.375 0.75 0.625 0.75 0.625 1 0.125 0.5 0.375 0.5 0.375 0.75 0.625 0.5 0.875 0.5 0.875 0.75 0.625 0.75 0.375 0.75 0.375 1 0.375 0.75 0.375 0.5 0.125 0.5 0.375 0 0.375 0.25 0.625 0.25 0.375 0.25 0.375 0.5 0.625 0.5 0.375 0.5 0.375 0.75 0.625 0.75 0.375 0.75 0.375 1 0.625 1 0.125 0.5 0.125 0.75 0.375 0.75 0.625 0.5 0.625 0.75 0.875 0.75 0.375 0 0.375 0.25 0.625 0.25 0.375 0.25 0.375 0.5 0.625 0.5 0.375 0.5 0.375 0.75 0.625 0.75 0.375 0.75 0.375 1 0.625 1 0.125 0.5 0.125 0.75 0.375 0.75 0.625 0.5 0.625 0.75 0.875 0.75 0.375 0 0.625 0.25 0.375 0.25 0.375 0.25 0.375 0.5 0.625 0.5 0.375 0.5 0.375 0.75 0.625 0.75 0.375 0.75 0.375 1 0.625 1 0.125 0.5 0.125 0.75 0.375 0.75 0.625 0.5 0.625 0.75 0.875 0.75 0.375 0 0.375 0.25 0.625 0.25 0.375 0.25 0.375 0.5 0.625 0.5 0.375 0.5 0.375 0.75 0.625 0.75 0.375 0.75 0.375 1 0.625 1 0.125 0.5 0.125 0.75 0.375 0.75 0.625 0.5 0.625 0.5 0.625 0.75 0.625 0.5 0.875 0.5 0.875 0.75 0.375 0.25 0.375 0.5 0.625 0.5 0.375 0.75 0.375 1 0.625 1 0.125 0.5 0.125 0.75 0.375 0.75 0.625 0.5 0.625 0.75 0.875 0.75 0.625 0.75 0.625 0.75 0.625 1 0.375 0 0.375 0.25 0.625 0.25 0.375 0.25 0.375 0.5 0.625 0.5 0.375 0.5 0.375 0.75 0.625 0.75 0.375 0.75 0.375 1 0.625 1 0.375 0.75 0.625 0.75 0.625 1 0.625 0.5 0.625 0.75 0.875 0.75 0.375 0.25 0.375 0.5 0.625 0.5 0.375 0.5 0.625 0.5 0.625 0.75 0.375 0.75 0.375 1 0.625 1 0.125 0.5 0.125 0.75 0.375 0.75 0.625 0.5 0.625 0.75 0.875 0.75 0.375 0 0.375 0.25 0.625 0.25 0.375 0.25 0.375 0.5 0.625 0.5 0.375 0.5 0.375 0.75 0.625 0.75 0.375 0.75 0.375 1 0.625 1 0.125 0.5 0.125 0.75 0.375 0.75 0.625 1 0.625 1 0.5 0.875 0.625 1 0.625 1 0.375 1 0.7083333 0.3333333 0.75 0.375 0.75 0.375 0.7916667 0.4166666 0.8333333 0.4583333 0.8333333 0.625 0.375 0 0.375 0.25 0.625 0.25 0.375 0.25 0.375 0.5 0.625 0.5 0.375 0.5 0.375 0.75 0.625 0.75 0.375 0.75 0.375 1 0.625 1 0.125 0.5 0.125 0.75 0.375 0.75 0.375 0.25 0.625 0.25 0.625 0.5 0.375 0 0.625 0.25 0.625 0 0.375 0.75 0.375 0.75 0.375 0.5 0.375 0.5 0.375 0.5 0.375 0.25 0.375 0 0.625 0.25 0.375 0.25 0.375 0.25 0.375 0.5 0.625 0.5 0.375 0.5 0.375 0.25 0.625 0.25 0.375 0.75 0.375 1 0.625 1 0.125 0.5 0.125 0.75 0.375 0.75 0.625 0.5 0.625 0.75 0.875 0.75 0.625 0.75 0.625 1 0.375 1 0.375 0.75 0.125 0.75 0.125 0.5</float_array>
          <technique_common>
            <accessor source="#Cube_011-mesh-map-0-array" count="726" stride="2">
              <param name="S" type="float"/>
              <param name="T" type="float"/>
            </accessor>
          </technique_common>
        </source>
        <vertices id="Cube_011-mesh-vertices">
          <input semantic="POSITION" source="#Cube_011-mesh-positions"/>
        </vertices>
        <triangles material="Material_010-material" count="109">
          <input semantic="VERTEX" source="#Cube_011-mesh-vertices" offset="0"/>
          <input semantic="NORMAL" source="#Cube_011-mesh-normals" offset="1"/>
          <input semantic="TEXCOORD" source="#Cube_011-mesh-map-0" offset="2" set="0"/>
          <p>0 0 0 1 0 1 21 0 2 1 1 3 4 1 4 45 1 5 45 2 6 3 2 7 2 2 8 2 3 9 19 3 10 0 3 11 1 4 12 2 4 13 0 4 14 4 5 15 19 5 16 3 5 17 5 6 18 17 6 19 7 6 20 7 7 21 11 7 22 10 7 23 10 8 24 9 8 25 8 8 26 8 9 27 6 9 28 5 9 29 7 10 30 8 10 31 5 10 32 18 11 33 9 11 34 11 11 35 49 12 36 13 12 37 15 12 38 14 13 39 18 13 40 17 13 41 6 14 42 13 14 43 12 14 44 14 15 45 6 15 46 12 15 47 18 16 48 13 16 49 16 16 50 16 17 51 6 17 52 9 17 53 29 18 54 21 18 55 20 18 56 20 19 57 1 19 58 23 19 59 23 20 60 0 20 61 22 20 62 22 21 63 19 21 64 29 21 65 22 22 66 28 22 67 42 22 68 1 23 69 19 23 70 0 23 71 26 24 72 20 24 73 30 24 74 23 25 75 42 25 76 44 25 77 28 26 78 25 26 79 24 26 80 26 27 81 28 27 82 24 27 83 20 28 84 25 28 85 29 28 86 31 29 87 38 29 88 33 29 89 33 30 90 26 30 91 35 30 92 35 31 93 24 31 94 34 31 95 34 32 96 32 32 97 31 32 98 33 33 99 34 33 100 31 33 101 32 34 102 24 34 103 36 34 104 36 35 105 24 35 106 25 35 107 38 36 108 36 36 109 37 36 110 37 37 111 25 37 112 27 37 113 39 38 114 30 38 115 40 38 116 40 39 117 44 39 118 43 39 119 43 40 120 42 40 121 41 40 122 41 41 123 28 41 124 39 41 125 40 42 126 41 42 127 39 42 128 20 43 129 44 43 130 30 43 131 29 44 132 30 44 133 28 44 134 28 45 135 23 45 136 22 45 137 30 46 138 20 46 139 23 46 140 0 47 141 1 47 142 45 47 143 1 48 144 49 48 145 48 48 146 48 49 147 15 49 148 14 49 149 46 50 150 2 50 151 0 50 152 1 51 153 46 51 154 0 51 155 49 52 156 2 52 157 47 52 158 47 53 159 12 53 160 13 53 161 46 54 162 14 54 163 12 54 164 0 121 363 21 121 364 19 121 365 1 122 366 21 122 367 4 122 368 45 123 369 4 123 370 3 123 371 2 124 372 3 124 373 19 124 374 1 125 375 45 125 376 2 125 377 4 126 378 21 126 379 19 126 380 5 127 381 6 127 382 17 127 383 7 128 384 17 128 385 11 128 386 10 129 387 11 129 388 9 129 389 8 130 390 9 130 391 6 130 392 7 131 393 10 131 394 8 131 395 18 132 396 16 132 397 9 132 398 49 133 399 47 133 400 13 133 401 14 134 402 15 134 403 18 134 404 17 135 405 18 135 406 11 135 407 6 136 408 16 136 409 13 136 410 14 137 411 17 137 412 6 137 413 18 138 414 15 138 415 13 138 416 29 139 417 19 139 418 21 139 419 20 140 420 21 140 421 1 140 422 23 141 423 1 141 424 0 141 425 22 142 426 0 142 427 19 142 428 1 143 429 21 143 430 19 143 431 26 144 432 27 144 433 20 144 434 23 145 435 22 145 436 42 145 437 28 146 438 29 146 439 25 146 440 26 147 441 30 147 442 28 147 443 20 148 444 27 148 445 25 148 446 31 149 447 32 149 448 38 149 449 33 150 450 38 150 451 26 150 452 35 151 453 26 151 454 24 151 455 34 152 456 24 152 457 32 152 458 33 153 459 35 153 460 34 153 461 38 154 462 32 154 463 36 154 464 37 155 465 36 155 466 25 155 467 26 156 468 38 156 469 37 156 470 26 157 471 37 157 472 27 157 473 39 158 474 28 158 475 30 158 476 40 159 477 30 159 478 44 159 479 43 160 480 44 160 481 42 160 482 41 161 483 42 161 484 28 161 485 40 162 486 43 162 487 41 162 488 20 163 489 23 163 490 44 163 491 29 164 492 20 164 493 30 164 494 29 165 495 28 165 496 22 165 497 28 166 498 30 166 499 23 166 500 0 167 501 45 167 502 2 167 503 1 168 504 45 168 505 49 168 506 48 169 507 49 169 508 15 169 509 46 170 510 47 170 511 2 170 512 1 171 513 48 171 514 46 171 515 49 172 516 45 172 517 2 172 518 47 173 519 46 173 520 12 173 521 46 174 522 48 174 523 14 174 524</p>
        </triangles>
        <triangles material="Material_002-material" count="12">
          <input semantic="VERTEX" source="#Cube_011-mesh-vertices" offset="0"/>
          <input semantic="NORMAL" source="#Cube_011-mesh-normals" offset="1"/>
          <input semantic="TEXCOORD" source="#Cube_011-mesh-map-0" offset="2" set="0"/>
          <p>50 55 165 53 55 166 51 55 167 52 56 168 64 56 169 53 56 170 55 57 171 65 57 172 64 57 173 54 58 174 51 58 175 65 58 176 52 59 177 54 59 178 55 59 179 64 60 180 51 60 181 53 60 182 50 175 525 52 175 526 53 175 527 52 176 528 55 176 529 64 176 530 55 177 531 54 177 532 65 177 533 54 178 534 50 178 535 51 178 536 52 179 537 50 179 538 54 179 539 64 180 540 65 180 541 51 180 542</p>
        </triangles>
        <triangles material="Material_003-material" count="12">
          <input semantic="VERTEX" source="#Cube_011-mesh-vertices" offset="0"/>
          <input semantic="NORMAL" source="#Cube_011-mesh-normals" offset="1"/>
          <input semantic="TEXCOORD" source="#Cube_011-mesh-map-0" offset="2" set="0"/>
          <p>56 61 183 59 61 184 57 61 185 58 62 186 63 62 187 59 62 188 62 63 189 61 63 190 63 63 191 60 64 192 57 64 193 61 64 194 58 65 195 60 65 196 62 65 197 63 66 198 57 66 199 59 66 200 56 181 543 58 181 544 59 181 545 58 182 546 62 182 547 63 182 548 62 183 549 60 183 550 61 183 551 60 184 552 56 184 553 57 184 554 58 185 555 56 185 556 60 185 557 63 186 558 61 186 559 57 186 560</p>
        </triangles>
        <triangles material="Material-material" count="109">
          <input semantic="VERTEX" source="#Cube_011-mesh-vertices" offset="0"/>
          <input semantic="NORMAL" source="#Cube_011-mesh-normals" offset="1"/>
          <input semantic="TEXCOORD" source="#Cube_011-mesh-map-0" offset="2" set="0"/>
          <p>66 67 201 67 67 202 69 67 203 68 68 204 73 68 205 69 68 206 72 69 207 71 69 208 73 69 209 70 70 210 67 70 211 71 70 212 68 71 213 70 71 214 72 71 215 73 72 216 67 72 217 69 72 218 74 73 219 77 73 220 75 73 221 76 74 222 81 74 223 77 74 224 80 75 225 79 75 226 81 75 227 78 76 228 75 76 229 79 76 230 76 77 231 78 77 232 80 77 233 87 78 234 79 78 235 86 78 236 115 79 237 83 79 238 113 79 239 84 80 240 87 80 241 85 80 242 77 81 243 81 81 244 87 81 245 75 82 246 83 82 247 86 82 248 84 83 249 75 83 250 77 83 251 87 84 252 83 84 253 85 84 254 88 85 255 69 85 256 67 85 257 89 86 258 68 86 259 69 86 260 91 87 261 66 87 262 68 87 263 90 88 264 67 88 265 66 88 266 90 89 267 94 89 268 88 89 269 68 90 270 67 90 271 69 90 272 105 91 273 89 91 274 103 91 275 91 92 276 109 92 277 90 92 278 94 93 279 93 93 280 88 93 281 105 94 282 94 94 283 95 94 284 89 95 285 93 95 286 103 95 287 96 96 288 99 96 289 97 96 290 98 97 291 105 97 292 99 97 293 101 98 294 92 98 295 105 98 296 100 99 297 97 99 298 92 99 299 98 100 300 100 100 301 101 100 302 99 101 303 102 101 304 97 101 305 103 102 306 93 102 307 102 102 308 105 103 309 104 103 310 99 103 311 105 104 312 103 104 313 104 104 314 106 105 315 95 105 316 94 105 317 107 106 318 111 106 319 95 106 320 110 107 321 109 107 322 111 107 323 108 108 324 94 108 325 109 108 326 107 109 327 108 109 328 110 109 329 89 110 330 111 110 331 91 110 332 88 111 333 89 111 334 95 111 335 94 112 336 91 112 337 95 112 338 66 113 339 70 113 340 72 113 341 68 114 342 115 114 343 72 114 344 114 115 345 85 115 346 115 115 347 112 116 348 70 116 349 113 116 350 68 117 351 112 117 352 114 117 353 115 118 354 70 118 355 72 118 356 113 119 357 82 119 358 112 119 359 112 120 360 84 120 361 114 120 362 66 187 561 69 187 562 68 187 563 68 188 564 72 188 565 73 188 566 72 189 567 70 189 568 71 189 569 70 190 570 66 190 571 67 190 572 68 191 573 66 191 574 70 191 575 73 192 576 71 192 577 67 192 578 74 193 579 76 193 580 77 193 581 76 194 582 80 194 583 81 194 584 80 195 585 78 195 586 79 195 587 78 196 588 74 196 589 75 196 590 76 197 591 74 197 592 78 197 593 87 198 594 81 198 595 79 198 596 115 199 597 85 199 598 83 199 599 84 200 600 77 200 601 87 200 602 75 201 603 82 201 604 83 201 605 84 202 606 82 202 607 75 202 608 87 203 609 86 203 610 83 203 611 86 204 612 79 204 613 75 204 614 88 205 615 89 205 616 69 205 617 89 206 618 91 206 619 68 206 620 91 207 621 90 207 622 66 207 623 90 208 624 88 208 625 67 208 626 90 209 627 109 209 628 94 209 629 68 210 630 66 210 631 67 210 632 105 211 633 95 211 634 89 211 635 91 212 636 111 212 637 109 212 638 94 213 639 92 213 640 93 213 641 105 214 642 92 214 643 94 214 644 89 215 645 88 215 646 93 215 647 96 216 648 98 216 649 99 216 650 98 217 651 101 217 652 105 217 653 101 218 654 100 218 655 92 218 656 100 219 657 96 219 658 97 219 659 98 220 660 96 220 661 100 220 662 97 221 663 102 221 664 92 221 665 102 222 666 93 222 667 92 222 668 99 223 669 104 223 670 102 223 671 104 224 672 103 224 673 102 224 674 106 225 675 107 225 676 95 225 677 107 226 678 110 226 679 111 226 680 110 227 681 108 227 682 109 227 683 108 228 684 106 228 685 94 228 686 107 229 687 106 229 688 108 229 689 89 230 690 95 230 691 111 230 692 88 231 693 95 231 694 94 231 695 94 232 696 90 232 697 91 232 698 95 233 699 91 233 700 89 233 701 66 234 702 72 234 703 68 234 704 68 235 705 114 235 706 115 235 707 114 236 708 84 236 709 85 236 710 112 237 711 66 237 712 70 237 713 68 238 714 66 238 715 112 238 716 115 239 717 113 239 718 70 239 719 113 240 720 83 240 721 82 240 722 112 241 723 82 241 724 84 241 725</p>
        </triangles>
      </mesh>
    </geometry>
  </library_geometries>
  <library_visual_scenes>
    <visual_scene id="Scene" name="Scene">
      <node id="tmp_export_Cube_011" name="tmp_export_Cube.011" type="NODE">
        <matrix sid="transform">1 0 0 0 0 1 0 0 0 0 1 0 0 0 0 1</matrix>
        <instance_geometry url="#Cube_011-mesh" name="tmp_export_Cube.011">
          <bind_material>
            <technique_common>
              <instance_material symbol="Material_010-material" target="#Material_010-material">
                <bind_vertex_input semantic="UVMap" input_semantic="TEXCOORD" input_set="0"/>
              </instance_material>
              <instance_material symbol="Material_002-material" target="#Material_002-material">
                <bind_vertex_input semantic="UVMap" input_semantic="TEXCOORD" input_set="0"/>
              </instance_material>
              <instance_material symbol="Material_003-material" target="#Material_003-material">
                <bind_vertex_input semantic="UVMap" input_semantic="TEXCOORD" input_set="0"/>
              </instance_material>
              <instance_material symbol="Material-material" target="#Material-material">
                <bind_vertex_input semantic="UVMap" input_semantic="TEXCOORD" input_set="0"/>
              </instance_material>
            </technique_common>
          </bind_material>
        </instance_geometry>
      </node>
    </visual_scene>
  </library_visual_scenes>
  <scene>
    <instance_visual_scene url="#Scene"/>
  </scene>
</COLLADA>