<?xml version="1.0" encoding="utf-8"?>
<COLLADA xmlns="http://www.collada.org/2005/11/COLLADASchema" version="1.4.1" xmlns:xsi="http://www.w3.org/2001/XMLSchema-instance">
  <asset>
    <contributor>
      <author>Blender User</author>
      <authoring_tool>Blender 4.2.18 LTS commit date:2026-02-16, commit time:13:37, hash:d71e3422e438</authoring_tool>
    </contributor>
    <created>2026-04-12T20:18:24</created>
    <modified>2026-04-12T20:18:24</modified>
    <unit name="meter" meter="1"/>
    <up_axis>Z_UP</up_axis>
  </asset>
  <library_effects>
    <effect id="Material_004-effect">
      <profile_COMMON>
        <technique sid="common">
          <lambert>
            <emission>
              <color sid="emission">0 0 0 1</color>
            </emission>
            <diffuse>
              <color sid="diffuse">1 0.738 0 1</color>
            </diffuse>
            <index_of_refraction>
              <float sid="ior">1.5</float>
            </index_of_refraction>
          </lambert>
        </technique>
      </profile_COMMON>
    </effect>
  </library_effects>
  <library_images/>
  <library_materials>
    <material id="Material_004-material" name="Material.004">
      <instance_effect url="#Material_004-effect"/>
    </material>
  </library_materials>
  <library_geometries>
    <geometry id="Cube_020-mesh" name="Cube.020">
      <mesh>
        <source id="Cube_020-mesh-positions">
          <float_array id="Cube_020-mesh-positions-array" count="132">-1 -1 -1 -1 -1 1 -1 1 -1 -1 1 1 1 -1 -1 1 -1 1 1 1 -1 1 1 1 0.9277485 -1 1.000599 0.9277485 -1 6.000599 0.9277485 1 6.000599 0.9999133 -1 6.000599 0.9999133 1 6.000599 -0.9279214 -0.8000001 1.000597 -0.9279214 -0.8000001 6.000596 0.9277485 -0.8000001 1.000597 0.9277485 -0.8000001 6.000596 -1.000087 -1 6.000596 -1.000087 1 6.000596 -0.9279216 -1 1.000597 -0.9279216 -1 6.000596 -0.9279216 1 1.000597 -0.9279216 1 6.000596 -0.3557567 -0.8 1.000597 -0.3557567 -0.8 6.000596 -0.3557567 0.8 1.000597 -0.3557567 0.8 6.000596 -0.3042103 -0.8 1.000597 -0.3042103 -0.8 6.000596 -0.3042103 0.8 1.000597 -0.3042103 0.8 6.000596 -0.9279214 0.8000002 1.000597 -0.9279214 0.8000002 6.000596 0.9277485 0.8000002 1.000597 0.9277485 0.8000002 6.000596 0.9277485 1 1.000597 0.2885732 -0.8 1.000597 0.2885732 -0.8 6.000596 0.2885732 0.8 1.000597 0.2885732 0.8 6.000596 0.3401196 -0.8 1.000597 0.3401196 -0.8 6.000596 0.3401196 0.8 1.000597 0.3401196 0.8 6.000596</float_array>
          <technique_common>
            <accessor source="#Cube_020-mesh-positions-array" count="44" stride="3">
              <param name="X" type="float"/>
              <param name="Y" type="float"/>
              <param name="Z" type="float"/>
            </accessor>
          </technique_common>
        </source>
        <source id="Cube_020-mesh-normals">
          <float_array id="Cube_020-mesh-normals-array" count="252">-1 0 0 0 1 0 1 0 0 0 -1 0 0 0 -1 0 0 1 -1 0 0 3.29984e-6 1 0 1 0 1.7331e-5 0 -1 0 -0.00828886 -1.19181e-6 -0.9999657 0 0 1 -1 1.19209e-6 0 0 1 0 1 -2.98023e-7 0 0 -1 0 1.28481e-6 0 -1 -1.54177e-6 1.43051e-5 1 -1 0 -1.73071e-5 0 1 0 1 0 0 0 -1 0 0.008275747 0 -0.9999658 0 0 1 -1 0 0 0 1 0 1 0 0 0 -1 0 0 0 -1 0 0 1 -1 -1.19209e-6 0 -1.28481e-7 1 0 1 0 0 0 -1 0 0 0 -1 0 -1.43051e-5 1 -1 0 0 0 1 0 1 0 0 0 -1 0 0 0 -1 0 0 1 -1 0 0 0 1 0 1 0 0 0 -1 0 0 0 -1 0 0 1 -1 0 0 0 1 0 1 0 1.7331e-5 0 -1 0 -0.008255898 0 -0.999966 0 0 1 -1 1.19209e-6 0 0 1 0 1 -2.98023e-7 0 0 -1 0 0 -1.19209e-5 -1 0 0 1 -1 0 -1.73071e-5 0 1 0 1 0 0 0 -1 0 0.008275747 0 -0.9999658 0 0 1 -1 0 0 0 1 0 1 0 0 0 -1 0 0 0 -1 0 0 1 -1 -1.19209e-6 0 0 1 0 1 2.98023e-7 0 0 -1 0 0 0 -1 -1.54177e-6 0 1 -1 0 0 0 1 0 1 0 0 0 -1 0 0 0 -1 0 0 1</float_array>
          <technique_common>
            <accessor source="#Cube_020-mesh-normals-array" count="84" stride="3">
              <param name="X" type="float"/>
              <param name="Y" type="float"/>
              <param name="Z" type="float"/>
            </accessor>
          </technique_common>
        </source>
        <source id="Cube_020-mesh-map-0">
          <float_array id="Cube_020-mesh-map-0-array" count="504">0.375 0 0.625 0.25 0.375 0.25 0.375 0.25 0.625 0.5 0.375 0.5 0.375 0.5 0.625 0.75 0.375 0.75 0.375 0.75 0.625 1 0.375 1 0.125 0.5 0.375 0.75 0.125 0.75 0.625 0.5 0.875 0.75 0.625 0.75 0.375 0 0.625 0.25 0.375 0.25 0.375 0.25 0.625 0.5 0.375 0.5 0.375 0.5 0.625 0.75 0.375 0.75 0.375 0.75 0.625 1 0.375 1 0.125 0.5 0.375 0.75 0.125 0.75 0.625 0.5 0.875 0.75 0.625 0.75 0.375 0 0.625 0.25 0.375 0.25 0.375 0.25 0.625 0.5 0.375 0.5 0.375 0.5 0.625 0.75 0.375 0.75 0.375 0.75 0.625 1 0.375 1 0.125 0.5 0.375 0.75 0.125 0.75 0.625 0.5 0.875 0.75 0.625 0.75 0.375 0 0.625 0.25 0.375 0.25 0.375 0.25 0.625 0.5 0.375 0.5 0.375 0.5 0.625 0.75 0.375 0.75 0.375 0.75 0.625 1 0.375 1 0.125 0.5 0.375 0.75 0.125 0.75 0.625 0.5 0.875 0.75 0.625 0.75 0.375 0 0.625 0.25 0.375 0.25 0.375 0.25 0.625 0.5 0.375 0.5 0.375 0.5 0.625 0.75 0.375 0.75 0.375 0.75 0.625 1 0.375 1 0.125 0.5 0.375 0.75 0.125 0.75 0.625 0.5 0.875 0.75 0.625 0.75 0.375 0 0.625 0.25 0.375 0.25 0.375 0.25 0.625 0.5 0.375 0.5 0.375 0.5 0.625 0.75 0.375 0.75 0.375 0.75 0.625 1 0.375 1 0.125 0.5 0.375 0.75 0.125 0.75 0.625 0.5 0.875 0.75 0.625 0.75 0.375 0 0.625 0.25 0.375 0.25 0.375 0.25 0.625 0.5 0.375 0.5 0.375 0.5 0.625 0.75 0.375 0.75 0.375 0.75 0.625 1 0.375 1 0.125 0.5 0.375 0.75 0.125 0.75 0.625 0.5 0.875 0.75 0.625 0.75 0.375 0 0.625 0 0.625 0.25 0.375 0.25 0.625 0.25 0.625 0.5 0.375 0.5 0.625 0.5 0.625 0.75 0.375 0.75 0.625 0.75 0.625 1 0.125 0.5 0.375 0.5 0.375 0.75 0.625 0.5 0.875 0.5 0.875 0.75 0.375 0 0.625 0 0.625 0.25 0.375 0.25 0.625 0.25 0.625 0.5 0.375 0.5 0.625 0.5 0.625 0.75 0.375 0.75 0.625 0.75 0.625 1 0.125 0.5 0.375 0.5 0.375 0.75 0.625 0.5 0.875 0.5 0.875 0.75 0.375 0 0.625 0 0.625 0.25 0.375 0.25 0.625 0.25 0.625 0.5 0.375 0.5 0.625 0.5 0.625 0.75 0.375 0.75 0.625 0.75 0.625 1 0.125 0.5 0.375 0.5 0.375 0.75 0.625 0.5 0.875 0.5 0.875 0.75 0.375 0 0.625 0 0.625 0.25 0.375 0.25 0.625 0.25 0.625 0.5 0.375 0.5 0.625 0.5 0.625 0.75 0.375 0.75 0.625 0.75 0.625 1 0.125 0.5 0.375 0.5 0.375 0.75 0.625 0.5 0.875 0.5 0.875 0.75 0.375 0 0.625 0 0.625 0.25 0.375 0.25 0.625 0.25 0.625 0.5 0.375 0.5 0.625 0.5 0.625 0.75 0.375 0.75 0.625 0.75 0.625 1 0.125 0.5 0.375 0.5 0.375 0.75 0.625 0.5 0.875 0.5 0.875 0.75 0.375 0 0.625 0 0.625 0.25 0.375 0.25 0.625 0.25 0.625 0.5 0.375 0.5 0.625 0.5 0.625 0.75 0.375 0.75 0.625 0.75 0.625 1 0.125 0.5 0.375 0.5 0.375 0.75 0.625 0.5 0.875 0.5 0.875 0.75 0.375 0 0.625 0 0.625 0.25 0.375 0.25 0.625 0.25 0.625 0.5 0.375 0.5 0.625 0.5 0.625 0.75 0.375 0.75 0.625 0.75 0.625 1 0.125 0.5 0.375 0.5 0.375 0.75 0.625 0.5 0.875 0.5 0.875 0.75</float_array>
          <technique_common>
            <accessor source="#Cube_020-mesh-map-0-array" count="252" stride="2">
              <param name="S" type="float"/>
              <param name="T" type="float"/>
            </accessor>
          </technique_common>
        </source>
        <vertices id="Cube_020-mesh-vertices">
          <input semantic="POSITION" source="#Cube_020-mesh-positions"/>
        </vertices>
        <triangles material="Material_004-material" count="84">
          <input semantic="VERTEX" source="#Cube_020-mesh-vertices" offset="0"/>
          <input semantic="NORMAL" source="#Cube_020-mesh-normals" offset="1"/>
          <input semantic="TEXCOORD" source="#Cube_020-mesh-map-0" offset="2" set="0"/>
          <p>0 0 0 3 0 1 2 0 2 2 1 3 7 1 4 6 1 5 6 2 6 5 2 7 4 2 8 4 3 9 1 3 10 0 3 11 2 4 12 4 4 13 0 4 14 7 5 15 1 5 16 5 5 17 8 6 18 10 6 19 35 6 20 35 7 21 12 7 22 7 7 23 7 8 24 11 8 25 5 8 26 5 9 27 9 9 28 8 9 29 35 10 30 5 10 31 8 10 32 12 11 33 9 11 34 11 11 35 19 12 36 14 12 37 13 12 38 13 13 39 16 13 40 15 13 41 15 14 42 9 14 43 8 14 44 8 15 45 20 15 46 19 15 47 13 16 48 8 16 49 19 16 50 16 17 51 20 17 52 9 17 53 1 18 54 18 18 55 3 18 56 3 19 57 22 19 58 21 19 59 21 20 60 20 20 61 19 20 62 19 21 63 17 21 64 1 21 65 3 22 66 19 22 67 1 22 68 22 23 69 17 23 70 20 23 71 23 24 72 26 24 73 25 24 74 25 25 75 30 25 76 29 25 77 29 26 78 28 26 79 27 26 80 27 27 81 24 27 82 23 27 83 25 28 84 27 28 85 23 28 86 30 29 87 24 29 88 28 29 89 31 30 90 22 30 91 21 30 92 21 31 93 10 31 94 35 31 95 35 32 96 34 32 97 33 32 98 33 33 99 32 33 100 31 33 101 21 34 102 33 34 103 31 34 104 10 35 105 32 35 106 34 35 107 36 36 108 39 36 109 38 36 110 38 37 111 43 37 112 42 37 113 42 38 114 41 38 115 40 38 116 40 39 117 37 39 118 36 39 119 38 40 120 40 40 121 36 40 122 43 41 123 37 41 124 41 41 125 0 42 126 1 42 127 3 42 128 2 43 129 3 43 130 7 43 131 6 44 132 7 44 133 5 44 134 4 45 135 5 45 136 1 45 137 2 46 138 6 46 139 4 46 140 7 47 141 3 47 142 1 47 143 8 48 144 9 48 145 10 48 146 35 49 147 10 49 148 12 49 149 7 50 150 12 50 151 11 50 152 5 51 153 11 51 154 9 51 155 35 52 156 7 52 157 5 52 158 12 53 159 10 53 160 9 53 161 19 54 162 20 54 163 14 54 164 13 55 165 14 55 166 16 55 167 15 56 168 16 56 169 9 56 170 8 57 171 9 57 172 20 57 173 13 58 174 15 58 175 8 58 176 16 59 177 14 59 178 20 59 179 1 60 180 17 60 181 18 60 182 3 61 183 18 61 184 22 61 185 21 62 186 22 62 187 20 62 188 19 63 189 20 63 190 17 63 191 3 64 192 21 64 193 19 64 194 22 65 195 18 65 196 17 65 197 23 66 198 24 66 199 26 66 200 25 67 201 26 67 202 30 67 203 29 68 204 30 68 205 28 68 206 27 69 207 28 69 208 24 69 209 25 70 210 29 70 211 27 70 212 30 71 213 26 71 214 24 71 215 31 72 216 32 72 217 22 72 218 21 73 219 22 73 220 10 73 221 35 74 222 10 74 223 34 74 224 33 75 225 34 75 226 32 75 227 21 76 228 35 76 229 33 76 230 10 77 231 22 77 232 32 77 233 36 78 234 37 78 235 39 78 236 38 79 237 39 79 238 43 79 239 42 80 240 43 80 241 41 80 242 40 81 243 41 81 244 37 81 245 38 82 246 42 82 247 40 82 248 43 83 249 39 83 250 37 83 251</p>
        </triangles>
      </mesh>
    </geometry>
  </library_geometries>
  <library_visual_scenes>
    <visual_scene id="Scene" name="Scene">
      <node id="tmp_export_Cube_020" name="tmp_export_Cube.020" type="NODE">
        <matrix sid="transform">1 0 0 0 0 1 0 0 0 0 1 0 0 0 0 1</matrix>
        <instance_geometry url="#Cube_020-mesh" name="tmp_export_Cube.020">
          <bind_material>
            <technique_common>
              <instance_material symbol="Material_004-material" target="#Material_004-material">
                <bind_vertex_input semantic="UVMap" input_semantic="TEXCOORD" input_set="0"/>
              </instance_material>
            </technique_common>
          </bind_material>
        </instance_geometry>
      </node>
    </visual_scene>
  </library_visual_scenes>
  <scene>
    <instance_visual_scene url="#Scene"/>
  </scene>
</COLLADA>