<?xml version="1.0" encoding="utf-8"?>
<COLLADA xmlns="http://www.collada.org/2005/11/COLLADASchema" version="1.4.1" xmlns:xsi="http://www.w3.org/2001/XMLSchema-instance">
  <asset>
    <contributor>
      <author>Blender User</author>
      <authoring_tool>Blender 4.2.18 LTS commit date:2026-02-16, commit time:13:37, hash:d71e3422e438</authoring_tool>
    </contributor>
    <created>2026-04-12T20:18:25</created>
    <modified>2026-04-12T20:18:25</modified>
    <unit name="meter" meter="1"/>
    <up_axis>Z_UP</up_axis>
  </asset>
  <library_effects>
    <effect id="Material_022-effect">
      <profile_COMMON>
        <technique sid="common">
          <lambert>
            <emission>
              <color sid="emission">0 0 0 1</color>
            </emission>
            <diffuse>
              <color sid="diffuse">0.6 0.6 0.6 1</color>
            </diffuse>
            <index_of_refraction>
              <float sid="ior">1.5</float>
            </index_of_refraction>
          </lambert>
        </technique>
      </profile_COMMON>
    </effect>
  </library_effects>
  <library_images/>
  <library_materials>
    <material id="Material_022-material" name="Material.022">
      <instance_effect url="#Material_022-effect"/>
    </material>
  </library_materials>
  <library_geometries>
    <geometry id="Cylinder_002-mesh" name="Cylinder.002">
      <mesh>
        <source id="Cylinder_002-mesh-positions">
          <float_array id="Cylinder_002-mesh-positions-array" count="384">0 1 -1 0 1 1 0.1950903 0.9807853 -1 0.1950903 0.9807853 1 0.3826835 0.9238795 -1 0.3826835 0.9238795 1 0.5555703 0.8314696 -1 0.5555703 0.8314696 1 0.7071068 0.7071068 -1 0.7071068 0.7071068 1 0.8314696 0.5555703 -1 0.8314696 0.5555703 1 0.9238795 0.3826835 -1 0.9238795 0.3826835 1 0.9807853 0.1950903 -1 0.9807853 0.1950903 1 1 0 -1 1 0 1 0.9807853 -0.1950903 -1 0.9807853 -0.1950903 1 0.9238795 -0.3826835 -1 0.9238795 -0.3826835 1 0.8314696 -0.5555703 -1 0.8314696 -0.5555703 1 0.7071068 -0.7071068 -1 0.7071068 -0.7071068 1 0.5555703 -0.8314696 -1 0.5555703 -0.8314696 1 0.3826835 -0.9238795 -1 0.3826835 -0.9238795 1 0.1950903 -0.9807853 -1 0.1950903 -0.9807853 1 0 -1 -1 0 -1 1 -0.1950903 -0.9807853 -1 -0.1950903 -0.9807853 1 -0.3826835 -0.9238795 -1 -0.3826835 -0.9238795 1 -0.5555703 -0.8314696 -1 -0.5555703 -0.8314696 1 -0.7071068 -0.7071068 -1 -0.7071068 -0.7071068 1 -0.8314696 -0.5555703 -1 -0.8314696 -0.5555703 1 -0.9238795 -0.3826835 -1 -0.9238795 -0.3826835 1 -0.9807853 -0.1950903 -1 -0.9807853 -0.1950903 1 -1 0 -1 -1 0 1 -0.9807853 0.1950903 -1 -0.9807853 0.1950903 1 -0.9238795 0.3826835 -1 -0.9238795 0.3826835 1 -0.8314696 0.5555703 -1 -0.8314696 0.5555703 1 -0.7071068 0.7071068 -1 -0.7071068 0.7071068 1 -0.5555703 0.8314696 -1 -0.5555703 0.8314696 1 -0.3826835 0.9238795 -1 -0.3826835 0.9238795 1 -0.1950903 0.9807853 -1 -0.1950903 0.9807853 1 1.52588e-5 1.250001 -1.033647 1.52588e-5 1.250001 -1.000314 0.2438781 1.225983 -1.033647 0.2438781 1.225983 -1.000314 0.4783696 1.15485 -1.033647 0.4783696 1.15485 -1.000314 0.694478 1.039338 -1.033647 0.694478 1.039338 -1.000314 0.8838987 0.8838844 -1.033647 0.8838987 0.8838844 -1.000314 1.039352 0.6944637 -1.033647 1.039352 0.6944637 -1.000314 1.154865 0.4783553 -1.033647 1.154865 0.4783553 -1.000314 1.225997 0.2438638 -1.033647 1.225997 0.2438638 -1.000314 1.250015 9.53674e-7 -1.033647 1.250015 9.53674e-7 -1.000314 1.225997 -0.2438619 -1.033647 1.225997 -0.2438619 -1.000314 1.154865 -0.4783534 -1.033647 1.154865 -0.4783534 -1.000314 1.039352 -0.6944618 -1.033647 1.039352 -0.6944618 -1.000314 0.8838987 -0.8838825 -1.033647 0.8838987 -0.8838825 -1.000314 0.694478 -1.039336 -1.033647 0.694478 -1.039336 -1.000314 0.4783696 -1.154848 -1.033647 0.4783696 -1.154848 -1.000314 0.2438781 -1.225981 -1.033647 0.2438781 -1.225981 -1.000314 1.52588e-5 -1.249999 -1.033647 1.52588e-5 -1.249999 -1.000314 -0.2438476 -1.225981 -1.033647 -0.2438476 -1.225981 -1.000314 -0.4783391 -1.154848 -1.033647 -0.4783391 -1.154848 -1.000314 -0.6944475 -1.039336 -1.033647 -0.6944475 -1.039336 -1.000314 -0.8838682 -0.8838825 -1.033647 -0.8838682 -0.8838825 -1.000314 -1.039322 -0.6944618 -1.033647 -1.039322 -0.6944618 -1.000314 -1.154834 -0.4783534 -1.033647 -1.154834 -0.4783534 -1.000314 -1.225966 -0.2438619 -1.033647 -1.225966 -0.2438619 -1.000314 -1.249985 9.53674e-7 -1.033647 -1.249985 9.53674e-7 -1.000314 -1.225966 0.2438638 -1.033647 -1.225966 0.2438638 -1.000314 -1.154834 0.4783553 -1.033647 -1.154834 0.4783553 -1.000314 -1.039322 0.6944637 -1.033647 -1.039322 0.6944637 -1.000314 -0.8838682 0.8838844 -1.033647 -0.8838682 0.8838844 -1.000314 -0.6944475 1.039338 -1.033647 -0.6944475 1.039338 -1.000314 -0.4783391 1.15485 -1.033647 -0.4783391 1.15485 -1.000314 -0.2438476 1.225983 -1.033647 -0.2438476 1.225983 -1.000314</float_array>
          <technique_common>
            <accessor source="#Cylinder_002-mesh-positions-array" count="128" stride="3">
              <param name="X" type="float"/>
              <param name="Y" type="float"/>
              <param name="Z" type="float"/>
            </accessor>
          </technique_common>
        </source>
        <source id="Cylinder_002-mesh-normals">
          <float_array id="Cylinder_002-mesh-normals-array" count="744">0.09801727 0.9951847 0 0.2902846 0.9569404 0 0.4713967 0.8819213 0 0.6343933 0.7730104 0 0.7730104 0.6343933 0 0.8819213 0.4713967 0 0.9569404 0.2902846 0 0.9951847 0.09801727 0 0.9951847 -0.09801727 0 0.9569404 -0.2902846 0 0.8819213 -0.4713967 0 0.7730104 -0.6343933 0 0.6343933 -0.7730104 0 0.4713967 -0.8819213 0 0.2902846 -0.9569404 0 0.09801727 -0.9951847 0 -0.09801727 -0.9951847 0 -0.2902846 -0.9569404 0 -0.4713967 -0.8819213 0 -0.6343933 -0.7730104 0 -0.7730104 -0.6343933 0 -0.8819213 -0.4713967 0 -0.9569404 -0.2902846 0 -0.9951847 -0.09801727 0 -0.9951847 0.09801727 0 -0.9569404 0.2902846 0 -0.8819213 0.4713967 0 -0.7730104 0.6343933 0 -0.6343933 0.7730104 0 -0.4713967 0.8819213 0 0 0 1 -0.2902846 0.9569404 0 -0.09801727 0.9951847 0 0 0 -1 0.09801715 0.9951847 0 0.2902846 0.9569404 0 0.4713967 0.8819212 0 0.6343933 0.7730104 0 0.7730104 0.6343933 0 0.8819212 0.4713967 0 0.9569404 0.2902846 0 0.9951847 0.09801715 0 0.9951847 -0.09801715 0 0.9569404 -0.2902846 0 0.8819212 -0.4713967 0 0.7730104 -0.6343933 0 0.6343933 -0.7730104 0 0.4713967 -0.8819212 0 0.2902846 -0.9569404 0 0.09801715 -0.9951847 0 -0.09801715 -0.9951847 0 -0.2902846 -0.9569404 0 -0.4713967 -0.8819212 0 -0.6343933 -0.7730104 0 -0.7730104 -0.6343933 0 -0.8819212 -0.4713967 0 -0.9569404 -0.2902846 0 -0.9951847 -0.09801715 0 -0.9951847 0.09801715 0 -0.9569404 0.2902846 0 -0.8819212 0.4713967 0 -0.7730104 0.6343933 0 -0.6343933 0.7730104 0 -0.4713967 0.8819212 0 0 0 1 -0.2902846 0.9569404 0 -0.09801715 0.9951847 0 0 0 -1 0.09801727 0.9951847 0 0.2902846 0.9569404 0 0.4713967 0.8819213 0 0.6343933 0.7730104 0 0.7730104 0.6343933 0 0.8819213 0.4713967 0 0.9569404 0.2902846 0 0.9951847 0.09801727 0 0.9951847 -0.09801727 0 0.9569404 -0.2902846 0 0.8819213 -0.4713967 0 0.7730104 -0.6343933 0 0.6343933 -0.7730104 0 0.4713967 -0.8819213 0 0.2902846 -0.9569404 0 0.09801727 -0.9951847 0 -0.09801727 -0.9951847 0 -0.2902846 -0.9569404 0 -0.4713967 -0.8819213 0 -0.6343933 -0.7730104 0 -0.7730104 -0.6343933 0 -0.8819213 -0.4713967 0 -0.9569404 -0.2902846 0 -0.9951847 -0.09801727 0 -0.9951847 0.09801727 0 -0.9569404 0.2902846 0 -0.8819213 0.4713967 0 -0.7730104 0.6343933 0 -0.6343933 0.7730104 0 -0.4713967 0.8819213 0 0 0 1 0 0 1 0 0 1 0 0 1 0 0 1 0 0 1 0 0 1 0 0 1 0 0 1 0 0 1 0 0 1 0 0 1 0 0 1 0 0 1 0 0 1 0 0 1 0 0 1 0 0 1 0 0 1 0 0 1 0 0 1 0 0 1 0 0 1 0 0 1 0 0 1 0 0 1 0 0 1 0 0 1 0 0 1 -0.2902846 0.9569404 0 -0.09801727 0.9951847 0 0 0 -1 0 0 -1 0 0 -1 0 0 -1 0 0 -1 0 0 -1 0 0 -1 0 0 -1 0 0 -1 0 0 -1 0 0 -1 0 0 -1 0 0 -1 0 0 -1 0 0 -1 0 0 -1 0 0 -1 0 0 -1 0 0 -1 0 0 -1 0 0 -1 0 0 -1 0 0 -1 0 0 -1 0 0 -1 0 0 -1 0 0 -1 0 0 -1 0 0 -1 0.09801715 0.9951847 0 0.2902846 0.9569404 0 0.4713967 0.8819212 0 0.6343933 0.7730104 0 0.7730104 0.6343933 0 0.8819212 0.4713967 0 0.9569404 0.2902846 0 0.9951847 0.09801715 0 0.9951847 -0.09801715 0 0.9569404 -0.2902846 0 0.8819212 -0.4713967 0 0.7730104 -0.6343933 0 0.6343933 -0.7730104 0 0.4713967 -0.8819212 0 0.2902846 -0.9569404 0 0.09801715 -0.9951847 0 -0.09801715 -0.9951847 0 -0.2902846 -0.9569404 0 -0.4713967 -0.8819212 0 -0.6343933 -0.7730104 0 -0.7730104 -0.6343933 0 -0.8819212 -0.4713967 0 -0.9569404 -0.2902846 0 -0.9951847 -0.09801715 0 -0.9951847 0.09801715 0 -0.9569404 0.2902846 0 -0.8819212 0.4713967 0 -0.7730104 0.6343933 0 -0.6343933 0.7730104 0 -0.4713967 0.8819212 0 0 0 1 0 0 1 0 0 1 0 0 1 0 0 1 0 0 1 0 0 1 0 0 1 0 0 1 0 0 1 0 0 1 0 0 1 0 0 1 0 0 1 0 0 1 0 0 1 0 0 1 0 0 1 0 0 1 0 0 1 0 0 1 0 0 1 0 0 1 0 0 1 0 0 1 0 0 1 0 0 1 0 0 1 0 0 1 -0.2902846 0.9569404 0 -0.09801715 0.9951847 0 0 0 -1 0 0 -1 0 0 -1 0 0 -1 0 0 -1 0 0 -1 0 0 -1 0 0 -1 0 0 -1 0 0 -1 0 0 -1 0 0 -1 0 0 -1 0 0 -1 0 0 -1 0 0 -1 0 0 -1 0 0 -1 0 0 -1 0 0 -1 0 0 -1 0 0 -1 0 0 -1 0 0 -1 0 0 -1 0 0 -1 0 0 -1 0 0 -1 0 0 -1</float_array>
          <technique_common>
            <accessor source="#Cylinder_002-mesh-normals-array" count="248" stride="3">
              <param name="X" type="float"/>
              <param name="Y" type="float"/>
              <param name="Z" type="float"/>
            </accessor>
          </technique_common>
        </source>
        <source id="Cylinder_002-mesh-map-0">
          <float_array id="Cylinder_002-mesh-map-0-array" count="1488">1 0.5 0.96875 1 0.96875 0.5 0.96875 0.5 0.9375 1 0.9375 0.5 0.9375 0.5 0.90625 1 0.90625 0.5 0.90625 0.5 0.875 1 0.875 0.5 0.875 0.5 0.84375 1 0.84375 0.5 0.84375 0.5 0.8125 1 0.8125 0.5 0.8125 0.5 0.78125 1 0.78125 0.5 0.78125 0.5 0.75 1 0.75 0.5 0.75 0.5 0.71875 1 0.71875 0.5 0.71875 0.5 0.6875 1 0.6875 0.5 0.6875 0.5 0.65625 1 0.65625 0.5 0.65625 0.5 0.625 1 0.625 0.5 0.625 0.5 0.59375 1 0.59375 0.5 0.59375 0.5 0.5625 1 0.5625 0.5 0.5625 0.5 0.53125 1 0.53125 0.5 0.53125 0.5 0.5 1 0.5 0.5 0.5 0.5 0.46875 1 0.46875 0.5 0.46875 0.5 0.4375 1 0.4375 0.5 0.4375 0.5 0.40625 1 0.40625 0.5 0.40625 0.5 0.375 1 0.375 0.5 0.375 0.5 0.34375 1 0.34375 0.5 0.34375 0.5 0.3125 1 0.3125 0.5 0.3125 0.5 0.28125 1 0.28125 0.5 0.28125 0.5 0.25 1 0.25 0.5 0.25 0.5 0.21875 1 0.21875 0.5 0.21875 0.5 0.1875 1 0.1875 0.5 0.1875 0.5 0.15625 1 0.15625 0.5 0.15625 0.5 0.125 1 0.125 0.5 0.125 0.5 0.09375 1 0.09375 0.5 0.09375 0.5 0.0625 1 0.0625 0.5 0.1581559 0.02826887 0.4717311 0.1581559 0.341844 0.4717311 0.0625 0.5 0.03125 1 0.03125 0.5 0.03125 0.5 0 1 0 0.5 0.7968217 0.01461154 0.5146116 0.2031783 0.7031784 0.4853885 1 0.5 0.96875 1 0.96875 0.5 0.96875 0.5 0.9375 1 0.9375 0.5 0.9375 0.5 0.90625 1 0.90625 0.5 0.90625 0.5 0.875 1 0.875 0.5 0.875 0.5 0.84375 1 0.84375 0.5 0.84375 0.5 0.8125 1 0.8125 0.5 0.8125 0.5 0.78125 1 0.78125 0.5 0.78125 0.5 0.75 1 0.75 0.5 0.75 0.5 0.71875 1 0.71875 0.5 0.71875 0.5 0.6875 1 0.6875 0.5 0.6875 0.5 0.65625 1 0.65625 0.5 0.65625 0.5 0.625 1 0.625 0.5 0.625 0.5 0.59375 1 0.59375 0.5 0.59375 0.5 0.5625 1 0.5625 0.5 0.5625 0.5 0.53125 1 0.53125 0.5 0.53125 0.5 0.5 1 0.5 0.5 0.5 0.5 0.46875 1 0.46875 0.5 0.46875 0.5 0.4375 1 0.4375 0.5 0.4375 0.5 0.40625 1 0.40625 0.5 0.40625 0.5 0.375 1 0.375 0.5 0.375 0.5 0.34375 1 0.34375 0.5 0.34375 0.5 0.3125 1 0.3125 0.5 0.3125 0.5 0.28125 1 0.28125 0.5 0.28125 0.5 0.25 1 0.25 0.5 0.25 0.5 0.21875 1 0.21875 0.5 0.21875 0.5 0.1875 1 0.1875 0.5 0.1875 0.5 0.15625 1 0.15625 0.5 0.15625 0.5 0.125 1 0.125 0.5 0.125 0.5 0.09375 1 0.09375 0.5 0.09375 0.5 0.0625 1 0.0625 0.5 0.4717311 0.341844 0.341844 0.4717311 0.1581559 0.02826887 0.0625 0.5 0.03125 1 0.03125 0.5 0.03125 0.5 0 1 0 0.5 0.5146116 0.2031783 0.5504473 0.3833369 0.7031784 0.4853885 1 0.5 1 1 0.96875 1 0.96875 0.5 0.96875 1 0.9375 1 0.9375 0.5 0.9375 1 0.90625 1 0.90625 0.5 0.90625 1 0.875 1 0.875 0.5 0.875 1 0.84375 1 0.84375 0.5 0.84375 1 0.8125 1 0.8125 0.5 0.8125 1 0.78125 1 0.78125 0.5 0.78125 1 0.75 1 0.75 0.5 0.75 1 0.71875 1 0.71875 0.5 0.71875 1 0.6875 1 0.6875 0.5 0.6875 1 0.65625 1 0.65625 0.5 0.65625 1 0.625 1 0.625 0.5 0.625 1 0.59375 1 0.59375 0.5 0.59375 1 0.5625 1 0.5625 0.5 0.5625 1 0.53125 1 0.53125 0.5 0.53125 1 0.5 1 0.5 0.5 0.5 1 0.46875 1 0.46875 0.5 0.46875 1 0.4375 1 0.4375 0.5 0.4375 1 0.40625 1 0.40625 0.5 0.40625 1 0.375 1 0.375 0.5 0.375 1 0.34375 1 0.34375 0.5 0.34375 1 0.3125 1 0.3125 0.5 0.3125 1 0.28125 1 0.28125 0.5 0.28125 1 0.25 1 0.25 0.5 0.25 1 0.21875 1 0.21875 0.5 0.21875 1 0.1875 1 0.1875 0.5 0.1875 1 0.15625 1 0.15625 0.5 0.15625 1 0.125 1 0.125 0.5 0.125 1 0.09375 1 0.09375 0.5 0.09375 1 0.0625 1 0.341844 0.4717311 0.2968217 0.4853885 0.25 0.49 0.25 0.49 0.2031783 0.4853885 0.341844 0.4717311 0.2031783 0.4853885 0.1581559 0.4717311 0.341844 0.4717311 0.1581559 0.4717311 0.1166631 0.4495527 0.08029437 0.4197056 0.08029437 0.4197056 0.05044728 0.3833369 0.02826887 0.341844 0.02826887 0.341844 0.01461154 0.2968217 0.00999999 0.25 0.00999999 0.25 0.01461154 0.2031783 0.02826887 0.341844 0.01461154 0.2031783 0.02826887 0.1581559 0.02826887 0.341844 0.02826887 0.1581559 0.05044728 0.1166631 0.08029437 0.08029437 0.08029437 0.08029437 0.1166631 0.05044728 0.1581559 0.02826887 0.1581559 0.02826887 0.2031783 0.01461154 0.341844 0.02826887 0.2031783 0.01461154 0.25 0.00999999 0.341844 0.02826887 0.25 0.00999999 0.2968217 0.01461154 0.341844 0.02826887 0.341844 0.02826887 0.3833369 0.05044728 0.4197056 0.08029437 0.4197056 0.08029437 0.4495527 0.1166631 0.4717311 0.1581559 0.4717311 0.1581559 0.4853885 0.2031783 0.4717311 0.341844 0.4853885 0.2031783 0.49 0.25 0.4717311 0.341844 0.49 0.25 0.4853885 0.2968217 0.4717311 0.341844 0.4717311 0.341844 0.4495527 0.3833369 0.4197056 0.4197056 0.4197056 0.4197056 0.3833369 0.4495527 0.341844 0.4717311 0.1581559 0.4717311 0.08029437 0.4197056 0.341844 0.4717311 0.08029437 0.4197056 0.02826887 0.341844 0.341844 0.4717311 0.02826887 0.1581559 0.08029437 0.08029437 0.02826887 0.341844 0.08029437 0.08029437 0.1581559 0.02826887 0.02826887 0.341844 0.341844 0.02826887 0.4197056 0.08029437 0.1581559 0.02826887 0.4197056 0.08029437 0.4717311 0.1581559 0.1581559 0.02826887 0.4717311 0.341844 0.4197056 0.4197056 0.4717311 0.1581559 0.4197056 0.4197056 0.341844 0.4717311 0.4717311 0.1581559 0.341844 0.4717311 0.02826887 0.341844 0.1581559 0.02826887 0.0625 0.5 0.0625 1 0.03125 1 0.03125 0.5 0.03125 1 0 1 0.7031784 0.4853885 0.75 0.49 0.7968217 0.4853885 0.7968217 0.4853885 0.841844 0.4717311 0.8833369 0.4495527 0.8833369 0.4495527 0.9197056 0.4197056 0.9495527 0.3833369 0.9495527 0.3833369 0.9717311 0.341844 0.9853885 0.2968217 0.9853885 0.2968217 0.99 0.25 0.9853885 0.2031783 0.9853885 0.2031783 0.9717311 0.1581559 0.9495527 0.1166631 0.9495527 0.1166631 0.9197056 0.08029437 0.8833369 0.05044728 0.8833369 0.05044728 0.841844 0.02826887 0.7968217 0.01461154 0.7968217 0.01461154 0.75 0.00999999 0.7031784 0.01461154 0.7031784 0.01461154 0.658156 0.02826887 0.6166632 0.05044728 0.6166632 0.05044728 0.5802944 0.08029437 0.5504473 0.1166631 0.5504473 0.1166631 0.5282689 0.1581559 0.5146116 0.2031783 0.5146116 0.2031783 0.51 0.25 0.5146116 0.2968217 0.5146116 0.2968217 0.5282689 0.341844 0.5504473 0.3833369 0.5504473 0.3833369 0.5802944 0.4197056 0.6166632 0.4495527 0.6166632 0.4495527 0.658156 0.4717311 0.7031784 0.4853885 0.7031784 0.4853885 0.7968217 0.4853885 0.9853885 0.2968217 0.7968217 0.4853885 0.8833369 0.4495527 0.9853885 0.2968217 0.8833369 0.4495527 0.9495527 0.3833369 0.9853885 0.2968217 0.9853885 0.2968217 0.9853885 0.2031783 0.7968217 0.01461154 0.9853885 0.2031783 0.9495527 0.1166631 0.7968217 0.01461154 0.9495527 0.1166631 0.8833369 0.05044728 0.7968217 0.01461154 0.7968217 0.01461154 0.7031784 0.01461154 0.5146116 0.2031783 0.7031784 0.01461154 0.6166632 0.05044728 0.5146116 0.2031783 0.6166632 0.05044728 0.5504473 0.1166631 0.5146116 0.2031783 0.5146116 0.2031783 0.5146116 0.2968217 0.7031784 0.4853885 0.5146116 0.2968217 0.5504473 0.3833369 0.7031784 0.4853885 0.5504473 0.3833369 0.6166632 0.4495527 0.7031784 0.4853885 0.7031784 0.4853885 0.9853885 0.2968217 0.7968217 0.01461154 1 0.5 1 1 0.96875 1 0.96875 0.5 0.96875 1 0.9375 1 0.9375 0.5 0.9375 1 0.90625 1 0.90625 0.5 0.90625 1 0.875 1 0.875 0.5 0.875 1 0.84375 1 0.84375 0.5 0.84375 1 0.8125 1 0.8125 0.5 0.8125 1 0.78125 1 0.78125 0.5 0.78125 1 0.75 1 0.75 0.5 0.75 1 0.71875 1 0.71875 0.5 0.71875 1 0.6875 1 0.6875 0.5 0.6875 1 0.65625 1 0.65625 0.5 0.65625 1 0.625 1 0.625 0.5 0.625 1 0.59375 1 0.59375 0.5 0.59375 1 0.5625 1 0.5625 0.5 0.5625 1 0.53125 1 0.53125 0.5 0.53125 1 0.5 1 0.5 0.5 0.5 1 0.46875 1 0.46875 0.5 0.46875 1 0.4375 1 0.4375 0.5 0.4375 1 0.40625 1 0.40625 0.5 0.40625 1 0.375 1 0.375 0.5 0.375 1 0.34375 1 0.34375 0.5 0.34375 1 0.3125 1 0.3125 0.5 0.3125 1 0.28125 1 0.28125 0.5 0.28125 1 0.25 1 0.25 0.5 0.25 1 0.21875 1 0.21875 0.5 0.21875 1 0.1875 1 0.1875 0.5 0.1875 1 0.15625 1 0.15625 0.5 0.15625 1 0.125 1 0.125 0.5 0.125 1 0.09375 1 0.09375 0.5 0.09375 1 0.0625 1 0.341844 0.4717311 0.2968217 0.4853885 0.25 0.49 0.25 0.49 0.2031783 0.4853885 0.1581559 0.4717311 0.1581559 0.4717311 0.1166631 0.4495527 0.08029437 0.4197056 0.08029437 0.4197056 0.05044728 0.3833369 0.1581559 0.4717311 0.05044728 0.3833369 0.02826887 0.341844 0.1581559 0.4717311 0.02826887 0.341844 0.01461154 0.2968217 0.02826887 0.1581559 0.01461154 0.2968217 0.00999999 0.25 0.02826887 0.1581559 0.00999999 0.25 0.01461154 0.2031783 0.02826887 0.1581559 0.02826887 0.1581559 0.05044728 0.1166631 0.08029437 0.08029437 0.08029437 0.08029437 0.1166631 0.05044728 0.02826887 0.1581559 0.1166631 0.05044728 0.1581559 0.02826887 0.02826887 0.1581559 0.1581559 0.02826887 0.2031783 0.01461154 0.25 0.00999999 0.25 0.00999999 0.2968217 0.01461154 0.341844 0.02826887 0.341844 0.02826887 0.3833369 0.05044728 0.4197056 0.08029437 0.4197056 0.08029437 0.4495527 0.1166631 0.341844 0.02826887 0.4495527 0.1166631 0.4717311 0.1581559 0.341844 0.02826887 0.4717311 0.1581559 0.4853885 0.2031783 0.49 0.25 0.49 0.25 0.4853885 0.2968217 0.4717311 0.1581559 0.4853885 0.2968217 0.4717311 0.341844 0.4717311 0.1581559 0.4717311 0.341844 0.4495527 0.3833369 0.4197056 0.4197056 0.4197056 0.4197056 0.3833369 0.4495527 0.4717311 0.341844 0.3833369 0.4495527 0.341844 0.4717311 0.4717311 0.341844 0.341844 0.4717311 0.25 0.49 0.02826887 0.341844 0.25 0.49 0.1581559 0.4717311 0.02826887 0.341844 0.1581559 0.02826887 0.25 0.00999999 0.4717311 0.1581559 0.25 0.00999999 0.341844 0.02826887 0.4717311 0.1581559 0.02826887 0.341844 0.02826887 0.1581559 0.341844 0.4717311 0.02826887 0.1581559 0.1581559 0.02826887 0.341844 0.4717311 0.4717311 0.1581559 0.4717311 0.341844 0.1581559 0.02826887 0.0625 0.5 0.0625 1 0.03125 1 0.03125 0.5 0.03125 1 0 1 0.7031784 0.4853885 0.75 0.49 0.7968217 0.4853885 0.7968217 0.4853885 0.841844 0.4717311 0.8833369 0.4495527 0.8833369 0.4495527 0.9197056 0.4197056 0.9853885 0.2968217 0.9197056 0.4197056 0.9495527 0.3833369 0.9853885 0.2968217 0.9495527 0.3833369 0.9717311 0.341844 0.9853885 0.2968217 0.9853885 0.2968217 0.99 0.25 0.9853885 0.2031783 0.9853885 0.2031783 0.9717311 0.1581559 0.9495527 0.1166631 0.9495527 0.1166631 0.9197056 0.08029437 0.7968217 0.01461154 0.9197056 0.08029437 0.8833369 0.05044728 0.7968217 0.01461154 0.8833369 0.05044728 0.841844 0.02826887 0.7968217 0.01461154 0.7968217 0.01461154 0.75 0.00999999 0.7031784 0.01461154 0.7031784 0.01461154 0.658156 0.02826887 0.6166632 0.05044728 0.6166632 0.05044728 0.5802944 0.08029437 0.5146116 0.2031783 0.5802944 0.08029437 0.5504473 0.1166631 0.5146116 0.2031783 0.5504473 0.1166631 0.5282689 0.1581559 0.5146116 0.2031783 0.5146116 0.2031783 0.51 0.25 0.5146116 0.2968217 0.5146116 0.2968217 0.5282689 0.341844 0.5504473 0.3833369 0.5504473 0.3833369 0.5802944 0.4197056 0.7031784 0.4853885 0.5802944 0.4197056 0.6166632 0.4495527 0.7031784 0.4853885 0.6166632 0.4495527 0.658156 0.4717311 0.7031784 0.4853885 0.7031784 0.4853885 0.7968217 0.4853885 0.8833369 0.4495527 0.9853885 0.2968217 0.9853885 0.2031783 0.9495527 0.1166631 0.7968217 0.01461154 0.7031784 0.01461154 0.6166632 0.05044728 0.5146116 0.2031783 0.5146116 0.2968217 0.5504473 0.3833369 0.7031784 0.4853885 0.8833369 0.4495527 0.7968217 0.01461154 0.8833369 0.4495527 0.9853885 0.2968217 0.7968217 0.01461154 0.9853885 0.2968217 0.9495527 0.1166631 0.7968217 0.01461154 0.7968217 0.01461154 0.6166632 0.05044728 0.7031784 0.4853885 0.6166632 0.05044728 0.5146116 0.2031783 0.7031784 0.4853885</float_array>
          <technique_common>
            <accessor source="#Cylinder_002-mesh-map-0-array" count="744" stride="2">
              <param name="S" type="float"/>
              <param name="T" type="float"/>
            </accessor>
          </technique_common>
        </source>
        <vertices id="Cylinder_002-mesh-vertices">
          <input semantic="POSITION" source="#Cylinder_002-mesh-positions"/>
        </vertices>
        <triangles material="Material_022-material" count="248">
          <input semantic="VERTEX" source="#Cylinder_002-mesh-vertices" offset="0"/>
          <input semantic="NORMAL" source="#Cylinder_002-mesh-normals" offset="1"/>
          <input semantic="TEXCOORD" source="#Cylinder_002-mesh-map-0" offset="2" set="0"/>
          <p>0 0 0 3 0 1 2 0 2 2 1 3 5 1 4 4 1 5 4 2 6 7 2 7 6 2 8 6 3 9 9 3 10 8 3 11 8 4 12 11 4 13 10 4 14 10 5 15 13 5 16 12 5 17 12 6 18 15 6 19 14 6 20 14 7 21 17 7 22 16 7 23 16 8 24 19 8 25 18 8 26 18 9 27 21 9 28 20 9 29 20 10 30 23 10 31 22 10 32 22 11 33 25 11 34 24 11 35 24 12 36 27 12 37 26 12 38 26 13 39 29 13 40 28 13 41 28 14 42 31 14 43 30 14 44 30 15 45 33 15 46 32 15 47 32 16 48 35 16 49 34 16 50 34 17 51 37 17 52 36 17 53 36 18 54 39 18 55 38 18 56 38 19 57 41 19 58 40 19 59 40 20 60 43 20 61 42 20 62 42 21 63 45 21 64 44 21 65 44 22 66 47 22 67 46 22 68 46 23 69 49 23 70 48 23 71 48 24 72 51 24 73 50 24 74 50 25 75 53 25 76 52 25 77 52 26 78 55 26 79 54 26 80 54 27 81 57 27 82 56 27 83 56 28 84 59 28 85 58 28 86 58 29 87 61 29 88 60 29 89 37 30 90 21 30 91 5 30 92 60 31 93 63 31 94 62 31 95 62 32 96 1 32 97 0 32 98 30 33 99 46 33 100 62 33 101 64 34 102 67 34 103 66 34 104 66 35 105 69 35 106 68 35 107 68 36 108 71 36 109 70 36 110 70 37 111 73 37 112 72 37 113 72 38 114 75 38 115 74 38 116 74 39 117 77 39 118 76 39 119 76 40 120 79 40 121 78 40 122 78 41 123 81 41 124 80 41 125 80 42 126 83 42 127 82 42 128 82 43 129 85 43 130 84 43 131 84 44 132 87 44 133 86 44 134 86 45 135 89 45 136 88 45 137 88 46 138 91 46 139 90 46 140 90 47 141 93 47 142 92 47 143 92 48 144 95 48 145 94 48 146 94 49 147 97 49 148 96 49 149 96 50 150 99 50 151 98 50 152 98 51 153 101 51 154 100 51 155 100 52 156 103 52 157 102 52 158 102 53 159 105 53 160 104 53 161 104 54 162 107 54 163 106 54 164 106 55 165 109 55 166 108 55 167 108 56 168 111 56 169 110 56 170 110 57 171 113 57 172 112 57 173 112 58 174 115 58 175 114 58 176 114 59 177 117 59 178 116 59 179 116 60 180 119 60 181 118 60 182 118 61 183 121 61 184 120 61 185 120 62 186 123 62 187 122 62 188 122 63 189 125 63 190 124 63 191 77 64 192 69 64 193 101 64 194 124 65 195 127 65 196 126 65 197 126 66 198 65 66 199 64 66 200 110 67 201 118 67 202 126 67 203 0 68 204 1 68 205 3 68 206 2 69 207 3 69 208 5 69 209 4 70 210 5 70 211 7 70 212 6 71 213 7 71 214 9 71 215 8 72 216 9 72 217 11 72 218 10 73 219 11 73 220 13 73 221 12 74 222 13 74 223 15 74 224 14 75 225 15 75 226 17 75 227 16 76 228 17 76 229 19 76 230 18 77 231 19 77 232 21 77 233 20 78 234 21 78 235 23 78 236 22 79 237 23 79 238 25 79 239 24 80 240 25 80 241 27 80 242 26 81 243 27 81 244 29 81 245 28 82 246 29 82 247 31 82 248 30 83 249 31 83 250 33 83 251 32 84 252 33 84 253 35 84 254 34 85 255 35 85 256 37 85 257 36 86 258 37 86 259 39 86 260 38 87 261 39 87 262 41 87 263 40 88 264 41 88 265 43 88 266 42 89 267 43 89 268 45 89 269 44 90 270 45 90 271 47 90 272 46 91 273 47 91 274 49 91 275 48 92 276 49 92 277 51 92 278 50 93 279 51 93 280 53 93 281 52 94 282 53 94 283 55 94 284 54 95 285 55 95 286 57 95 287 56 96 288 57 96 289 59 96 290 58 97 291 59 97 292 61 97 293 5 98 294 3 98 295 1 98 296 1 99 297 63 99 298 5 99 299 63 100 300 61 100 301 5 100 302 61 101 303 59 101 304 57 101 305 57 102 306 55 102 307 53 102 308 53 103 309 51 103 310 49 103 311 49 104 312 47 104 313 53 104 314 47 105 315 45 105 316 53 105 317 45 106 318 43 106 319 41 106 320 41 107 321 39 107 322 37 107 323 37 108 324 35 108 325 29 108 326 35 109 327 33 109 328 29 109 329 33 110 330 31 110 331 29 110 332 29 111 333 27 111 334 25 111 335 25 112 336 23 112 337 21 112 338 21 113 339 19 113 340 13 113 341 19 114 342 17 114 343 13 114 344 17 115 345 15 115 346 13 115 347 13 116 348 11 116 349 9 116 350 9 117 351 7 117 352 5 117 353 61 118 354 57 118 355 5 118 356 57 119 357 53 119 358 5 119 359 45 120 360 41 120 361 53 120 362 41 121 363 37 121 364 53 121 365 29 122 366 25 122 367 37 122 368 25 123 369 21 123 370 37 123 371 13 124 372 9 124 373 21 124 374 9 125 375 5 125 376 21 125 377 5 126 378 53 126 379 37 126 380 60 127 381 61 127 382 63 127 383 62 128 384 63 128 385 1 128 386 62 129 387 0 129 388 2 129 389 2 130 390 4 130 391 6 130 392 6 131 393 8 131 394 10 131 395 10 132 396 12 132 397 14 132 398 14 133 399 16 133 400 18 133 401 18 134 402 20 134 403 22 134 404 22 135 405 24 135 406 26 135 407 26 136 408 28 136 409 30 136 410 30 137 411 32 137 412 34 137 413 34 138 414 36 138 415 38 138 416 38 139 417 40 139 418 42 139 419 42 140 420 44 140 421 46 140 422 46 141 423 48 141 424 50 141 425 50 142 426 52 142 427 54 142 428 54 143 429 56 143 430 58 143 431 58 144 432 60 144 433 62 144 434 62 145 435 2 145 436 14 145 437 2 146 438 6 146 439 14 146 440 6 147 441 10 147 442 14 147 443 14 148 444 18 148 445 30 148 446 18 149 447 22 149 448 30 149 449 22 150 450 26 150 451 30 150 452 30 151 453 34 151 454 46 151 455 34 152 456 38 152 457 46 152 458 38 153 459 42 153 460 46 153 461 46 154 462 50 154 463 62 154 464 50 155 465 54 155 466 62 155 467 54 156 468 58 156 469 62 156 470 62 157 471 14 157 472 30 157 473 64 158 474 65 158 475 67 158 476 66 159 477 67 159 478 69 159 479 68 160 480 69 160 481 71 160 482 70 161 483 71 161 484 73 161 485 72 162 486 73 162 487 75 162 488 74 163 489 75 163 490 77 163 491 76 164 492 77 164 493 79 164 494 78 165 495 79 165 496 81 165 497 80 166 498 81 166 499 83 166 500 82 167 501 83 167 502 85 167 503 84 168 504 85 168 505 87 168 506 86 169 507 87 169 508 89 169 509 88 170 510 89 170 511 91 170 512 90 171 513 91 171 514 93 171 515 92 172 516 93 172 517 95 172 518 94 173 519 95 173 520 97 173 521 96 174 522 97 174 523 99 174 524 98 175 525 99 175 526 101 175 527 100 176 528 101 176 529 103 176 530 102 177 531 103 177 532 105 177 533 104 178 534 105 178 535 107 178 536 106 179 537 107 179 538 109 179 539 108 180 540 109 180 541 111 180 542 110 181 543 111 181 544 113 181 545 112 182 546 113 182 547 115 182 548 114 183 549 115 183 550 117 183 551 116 184 552 117 184 553 119 184 554 118 185 555 119 185 556 121 185 557 120 186 558 121 186 559 123 186 560 122 187 561 123 187 562 125 187 563 69 188 564 67 188 565 65 188 566 65 189 567 127 189 568 125 189 569 125 190 570 123 190 571 121 190 572 121 191 573 119 191 574 125 191 575 119 192 576 117 192 577 125 192 578 117 193 579 115 193 580 109 193 581 115 194 582 113 194 583 109 194 584 113 195 585 111 195 586 109 195 587 109 196 588 107 196 589 105 196 590 105 197 591 103 197 592 109 197 593 103 198 594 101 198 595 109 198 596 101 199 597 99 199 598 97 199 599 97 200 600 95 200 601 93 200 602 93 201 603 91 201 604 89 201 605 89 202 606 87 202 607 93 202 608 87 203 609 85 203 610 93 203 611 85 204 612 83 204 613 81 204 614 81 205 615 79 205 616 85 205 617 79 206 618 77 206 619 85 206 620 77 207 621 75 207 622 73 207 623 73 208 624 71 208 625 77 208 626 71 209 627 69 209 628 77 209 629 69 210 630 65 210 631 117 210 632 65 211 633 125 211 634 117 211 635 101 212 636 97 212 637 85 212 638 97 213 639 93 213 640 85 213 641 117 214 642 109 214 643 69 214 644 109 215 645 101 215 646 69 215 647 85 216 648 77 216 649 101 216 650 124 217 651 125 217 652 127 217 653 126 218 654 127 218 655 65 218 656 126 219 657 64 219 658 66 219 659 66 220 660 68 220 661 70 220 662 70 221 663 72 221 664 78 221 665 72 222 666 74 222 667 78 222 668 74 223 669 76 223 670 78 223 671 78 224 672 80 224 673 82 224 674 82 225 675 84 225 676 86 225 677 86 226 678 88 226 679 94 226 680 88 227 681 90 227 682 94 227 683 90 228 684 92 228 685 94 228 686 94 229 687 96 229 688 98 229 689 98 230 690 100 230 691 102 230 692 102 231 693 104 231 694 110 231 695 104 232 696 106 232 697 110 232 698 106 233 699 108 233 700 110 233 701 110 234 702 112 234 703 114 234 704 114 235 705 116 235 706 118 235 707 118 236 708 120 236 709 126 236 710 120 237 711 122 237 712 126 237 713 122 238 714 124 238 715 126 238 716 126 239 717 66 239 718 70 239 719 78 240 720 82 240 721 86 240 722 94 241 723 98 241 724 102 241 725 110 242 726 114 242 727 118 242 728 126 243 729 70 243 730 94 243 731 70 244 732 78 244 733 94 244 734 78 245 735 86 245 736 94 245 737 94 246 738 102 246 739 126 246 740 102 247 741 110 247 742 126 247 743</p>
        </triangles>
      </mesh>
    </geometry>
  </library_geometries>
  <library_visual_scenes>
    <visual_scene id="Scene" name="Scene">
      <node id="tmp_export_Cylinder_002" name="tmp_export_Cylinder.002" type="NODE">
        <matrix sid="transform">1 0 0 0 0 1 0 0 0 0 1 0 0 0 0 1</matrix>
        <instance_geometry url="#Cylinder_002-mesh" name="tmp_export_Cylinder.002">
          <bind_material>
            <technique_common>
              <instance_material symbol="Material_022-material" target="#Material_022-material">
                <bind_vertex_input semantic="UVMap" input_semantic="TEXCOORD" input_set="0"/>
              </instance_material>
            </technique_common>
          </bind_material>
        </instance_geometry>
      </node>
    </visual_scene>
  </library_visual_scenes>
  <scene>
    <instance_visual_scene url="#Scene"/>
  </scene>
</COLLADA>